<svg width="50" height="60" viewBox="0 0 50 60" fill="none" xmlns="http://www.w3.org/2000/svg">
<path d="M50 25C50.0053 23.4374 49.4304 21.9285 48.3867 20.7656C47.6738 19.9657 47.2799 18.9315 47.28 17.86C47.2816 17.5585 47.312 17.2578 47.3708 16.962C47.4586 16.5402 47.5052 16.1108 47.51 15.68C47.5089 14.3403 47.085 13.0351 46.2988 11.9504C45.5125 10.8657 44.404 10.0568 43.1311 9.63902C42.4826 9.43039 41.8932 9.07033 41.4115 8.58865C40.9298 8.10696 40.5697 7.51749 40.3611 6.86902C40.1308 6.16337 39.7773 5.50408 39.3171 4.92172C38.72 4.16741 37.9608 3.55717 37.0957 3.13622C36.2307 2.71527 35.282 2.49441 34.32 2.49002C33.8862 2.49496 33.4538 2.54185 33.029 2.63002C32.3621 2.76599 31.6728 2.74529 31.0153 2.56954C30.3578 2.39378 29.7501 2.06779 29.24 1.61722C28.0827 0.584211 26.5881 0.00918658 25.0369 0.000109131C23.4857 -0.00896832 21.9845 0.548526 20.8152 1.56792C20.7771 1.59362 20.7406 1.62168 20.7059 1.65192C20.2035 2.09975 19.6018 2.42181 18.9505 2.59158C18.2992 2.76136 17.6169 2.77398 16.9598 2.62842C16.5386 2.54121 16.1101 2.49487 15.68 2.49002C14.7186 2.49438 13.7706 2.71498 12.9061 3.13549C12.0416 3.55599 11.2827 4.16562 10.6858 4.91922C10.2245 5.5022 9.87039 6.16244 9.6399 6.86922C9.43077 7.51845 9.06994 8.1085 8.5873 8.59048C8.10467 9.07246 7.51412 9.43248 6.8646 9.64072C5.5927 10.059 4.4852 10.8679 3.69975 11.9523C2.91431 13.0366 2.49097 14.3411 2.49 15.68C2.49462 16.1097 2.54073 16.538 2.6277 16.9588C2.68733 17.2556 2.71824 17.5574 2.72 17.86C2.72051 18.929 2.32854 19.9609 1.6185 20.76C0.57721 21.9254 0.00120993 23.4333 0.000306241 24.9961C-0.000597445 26.559 0.573658 28.0675 1.6136 29.2341C2.32647 30.0342 2.72026 31.0684 2.72 32.14C2.71838 32.4416 2.68797 32.7423 2.6292 33.038C2.54139 33.4598 2.49478 33.8892 2.49 34.32C2.49117 35.66 2.9153 36.9655 3.70194 38.0503C4.48859 39.1351 5.59759 39.944 6.8709 40.3615C7.25257 40.4921 7.61306 40.6779 7.9409 40.9129L2.1328 52.0786C2.05628 52.2253 2.01739 52.3887 2.01963 52.5542C2.02186 52.7196 2.06514 52.8819 2.14559 53.0265C2.22604 53.1711 2.34113 53.2934 2.48054 53.3826C2.61994 53.4717 2.7793 53.5248 2.9443 53.5371L10.1182 54.0752L14.6768 59.6343C14.7706 59.7486 14.8887 59.8407 15.0224 59.9039C15.1561 59.9672 15.3021 60 15.45 60C15.4842 60 15.5184 59.998 15.5535 59.9946C15.718 59.9776 15.8757 59.92 16.0125 59.827C16.1492 59.7339 16.2606 59.6083 16.3367 59.4614L21.7281 49.0964C22.7169 49.6878 23.8476 50.0001 24.9997 50C26.1519 49.9999 27.2825 49.6874 28.2712 49.0958L33.6629 59.4614C33.739 59.6083 33.8504 59.7339 33.9871 59.827C34.1239 59.92 34.2816 59.9776 34.4461 59.9946C34.4812 59.998 34.5154 60 34.5496 60C34.6975 60 34.8436 59.9672 34.9773 59.904C35.1111 59.8407 35.2291 59.7486 35.323 59.6343L39.8816 54.0752L47.0545 53.5371C47.2195 53.5249 47.3789 53.4718 47.5184 53.3827C47.6578 53.2936 47.773 53.1712 47.8534 53.0266C47.9339 52.882 47.9772 52.7197 47.9793 52.5542C47.9815 52.3887 47.9426 52.2253 47.866 52.0786L42.0546 40.9051C42.3878 40.6738 42.7517 40.4901 43.1357 40.3594C44.4076 39.941 45.515 39.1321 46.3004 38.0477C47.0858 36.9634 47.5091 35.6589 47.51 34.32C47.5054 33.8903 47.4593 33.4621 47.3723 33.0412C47.3127 32.7445 47.2818 32.4427 47.28 32.14C47.2799 31.069 47.6733 30.0353 48.3854 29.2353C49.4293 28.0721 50.0046 26.563 50 25ZM10.0367 52.0634L4.6067 51.6563L9.3688 42.5016C9.3776 42.5189 9.388 42.535 9.3967 42.5524C9.49191 42.7403 9.57352 42.9348 9.6409 43.1343C10.168 44.716 11.2952 46.0275 12.7797 46.7864L10.0367 52.0634ZM15.2627 57.1934L11.8119 52.9853L14.7 47.43C15.4508 47.5525 16.2179 47.5328 16.9614 47.3717C17.2522 47.3141 17.5478 47.284 17.8442 47.2817C17.9403 47.2808 18.0302 47.2986 18.1242 47.3038C18.7392 47.3414 19.3392 47.5095 19.8842 47.7969C19.9531 47.8335 20.0261 47.8586 20.0936 47.8989L20.0967 47.9011L15.2627 57.1934ZM34.7373 57.1934L29.9033 47.9C30.1228 47.7689 30.3531 47.6566 30.5916 47.5644C31.0125 47.4098 31.4547 47.3211 31.9027 47.3016C31.988 47.2973 32.0692 47.2808 32.1562 47.2816C32.4176 47.2865 32.6782 47.313 32.9352 47.361C32.9706 47.3672 33.0034 47.3652 33.0391 47.3722C33.0545 47.3752 33.0671 47.3753 33.0824 47.3782C33.3486 47.4289 33.5941 47.4612 33.8279 47.4821C33.9179 47.4903 34.0046 47.4927 34.0916 47.497C34.1668 47.5002 34.2478 47.5099 34.3203 47.5099C34.3559 47.5099 34.3897 47.5021 34.4252 47.5015C34.7129 47.5014 35.0001 47.4785 35.2842 47.433L35.3014 47.4316L38.1881 52.9858L34.7373 57.1934ZM45.3926 51.6559L39.9633 52.063L37.2288 46.8017C37.2983 46.7658 37.3602 46.7178 37.4282 46.6795C37.529 46.623 37.6254 46.5607 37.7226 46.4989C37.8635 46.4089 38.0052 46.322 38.1386 46.2212C38.3436 46.0673 38.5392 45.9012 38.7242 45.7237C38.8101 45.6408 38.8868 45.5493 38.9681 45.4615C39.097 45.323 39.2224 45.182 39.3387 45.0322C39.4087 44.9414 39.4742 44.8474 39.5397 44.7522C39.656 44.5844 39.7633 44.4108 39.8635 44.2315C39.9102 44.1477 39.9588 44.0662 40.0019 43.9799C40.1417 43.7064 40.2615 43.423 40.3604 43.1322L40.3693 43.1108C40.4453 42.9076 40.5363 42.7104 40.6417 42.5208L45.3926 51.6559ZM46.8975 27.9L46.8926 27.9054C45.8536 29.0712 45.2796 30.5784 45.28 32.14C45.282 32.5704 45.3248 32.9996 45.4079 33.4218C45.4703 33.7172 45.5044 34.0179 45.5095 34.3197C45.5085 35.2376 45.218 36.1319 44.6794 36.8752C44.1408 37.6185 43.3815 38.1729 42.5095 38.4597C41.4082 38.8246 40.4282 39.4847 39.6762 40.3681C39.6375 40.4127 39.5962 40.4541 39.5587 40.4998C39.4503 40.6336 39.3527 40.7755 39.2554 40.9179C39.2081 40.9869 39.1561 41.0518 39.1116 41.1227C39.0081 41.2876 38.9176 41.4607 38.8295 41.6353C38.8034 41.6869 38.7719 41.7353 38.7473 41.7876C38.637 42.0206 38.5413 42.2603 38.4606 42.5051C38.393 42.7035 38.3115 42.8968 38.2166 43.0836C38.1849 43.147 38.1492 43.2077 38.1146 43.2692C38.0497 43.385 37.9801 43.4971 37.9056 43.6053C37.8556 43.678 37.8056 43.7507 37.751 43.8201C37.6864 43.9033 37.6157 43.9801 37.5457 44.0582C37.2576 44.3781 36.9238 44.6536 36.5551 44.8758C36.5337 44.8887 36.5129 44.9025 36.4913 44.915C36.3489 44.997 36.202 45.071 36.0513 45.1366L36.0169 45.151C35.8585 45.2187 35.6964 45.2771 35.5312 45.3259C35.4792 45.3422 35.4287 45.3516 35.3774 45.3659C35.258 45.3959 35.1409 45.4334 35.0182 45.4533L35.0016 45.4554C34.7967 45.4867 34.5899 45.5035 34.3826 45.5054C34.3159 45.5054 34.2489 45.5054 34.1785 45.5018C34.1154 45.4991 34.0521 45.4964 33.984 45.49C33.8097 45.4731 33.6272 45.4493 33.4218 45.4093C33.1665 45.3594 32.9086 45.3239 32.6494 45.3028C32.5438 45.2942 32.4411 45.2984 32.3366 45.2948C32.1909 45.2899 32.0442 45.2798 31.9006 45.2848C31.6974 45.2913 31.4983 45.3133 31.3001 45.3387C31.2592 45.344 31.2169 45.3441 31.1762 45.3502C30.4707 45.455 29.7887 45.6814 29.1606 46.0195L29.1489 46.0251C28.957 46.1296 28.7706 46.2439 28.5904 46.3676C28.5714 46.3804 28.5512 46.391 28.5324 46.404C28.3667 46.5191 28.2078 46.6465 28.0513 46.7781C28.0228 46.802 27.9919 46.8217 27.9638 46.8461L27.9598 46.8509C27.9405 46.8677 27.9198 46.8809 27.9003 46.8984C27.1011 47.6086 26.0691 48.0009 24.9999 48.0009C23.9307 48.0009 22.8987 47.6086 22.0995 46.8984C22.0819 46.8827 22.0644 46.8684 22.0468 46.8539L22.0175 46.8305C21.9194 46.746 21.8144 46.6731 21.7125 46.5951C21.6253 46.5281 21.5412 46.4556 21.4513 46.3934C21.3795 46.3434 21.3029 46.3034 21.2296 46.2572C21.0996 46.1752 20.9716 46.0901 20.8369 46.0179C20.8043 46.0005 20.7696 45.9879 20.7369 45.9711C19.4553 45.3162 17.9885 45.1181 16.5791 45.4096C15.8755 45.5803 15.1381 45.5494 14.4512 45.3207C13.7746 45.1223 13.1562 44.7627 12.6491 44.2728C12.1421 43.7828 11.7615 43.1771 11.54 42.5077C11.2203 41.5252 10.66 40.6383 9.91 39.9277L9.9014 39.9202L9.8924 39.9102L9.8868 39.9069C9.2117 39.247 8.39305 38.7522 7.4949 38.4614C6.62187 38.1752 5.86142 37.6209 5.32188 36.8773C4.78233 36.1337 4.49122 35.2387 4.49 34.32C4.49516 34.0171 4.52952 33.7154 4.5926 33.4191C4.67519 32.9977 4.71784 32.5694 4.72 32.14C4.72004 30.576 4.14437 29.0667 3.1028 27.9C2.39175 27.1001 1.99939 26.0668 2.0003 24.9965C2.0012 23.9262 2.3953 22.8936 3.1077 22.0948C4.14665 20.9289 4.72051 19.4217 4.72 17.86C4.718 17.4297 4.67517 17.0005 4.5921 16.5782C4.52947 16.2828 4.49528 15.982 4.49 15.68C4.49099 14.7621 4.78146 13.8679 5.32008 13.1246C5.85869 12.3813 6.61802 11.8268 7.49 11.54C8.43481 11.2292 9.29348 10.7009 9.9969 9.99766C10.7003 9.29445 11.2289 8.43594 11.54 7.49122C11.6975 7.00787 11.9399 6.55647 12.2559 6.15822C12.6649 5.64102 13.185 5.22251 13.7778 4.93372C14.3705 4.64494 15.0207 4.49329 15.68 4.49002C15.982 4.49523 16.2828 4.52908 16.5784 4.59112C17.5258 4.7921 18.5068 4.77049 19.4444 4.52799C20.382 4.28549 21.2506 3.82872 21.9817 3.19362C22.0233 3.16611 22.0628 3.13566 22.1 3.10252C22.9001 2.39155 23.9334 1.99921 25.0037 2.00002C26.074 2.00083 27.1067 2.39474 27.9057 3.10692C28.6474 3.76449 29.5316 4.24084 30.4887 4.49843C31.4459 4.75603 32.4498 4.78782 33.4213 4.59132C33.717 4.5293 34.0179 4.49538 34.32 4.49002C34.9797 4.49346 35.6302 4.64536 36.2233 4.93445C36.8163 5.22354 37.3367 5.64242 37.7458 6.16002C38.0608 6.55796 38.3026 7.00869 38.46 7.49122C38.7706 8.4353 39.2984 9.29334 40.0009 9.99637C40.7034 10.6994 41.561 11.2278 42.5049 11.5391C43.3779 11.8252 44.1383 12.3795 44.6779 13.123C45.2175 13.8665 45.5087 14.7613 45.51 15.68C45.5048 15.9829 45.4705 16.2846 45.4074 16.5809C45.3248 17.0023 45.2821 17.4306 45.28 17.86C45.28 19.424 45.8556 20.9333 46.8972 22.1C47.6075 22.899 47.9998 23.9309 47.9998 25C47.9998 26.0691 47.6078 27.101 46.8975 27.9Z" fill="#D9A441"/>
<path d="M35.208 20.3667L29.4736 19.2451L26.6348 14.1382C26.4729 13.8465 26.2359 13.6035 25.9484 13.4343C25.6609 13.265 25.3334 13.1758 24.9998 13.1758C24.6662 13.1758 24.3387 13.265 24.0512 13.4343C23.7637 13.6035 23.5267 13.8465 23.3648 14.1382L20.526 19.2451L14.792 20.3667C14.4647 20.4308 14.1606 20.5813 13.911 20.8024C13.6614 21.0236 13.4754 21.3074 13.3723 21.6246C13.2693 21.9417 13.2528 22.2807 13.3247 22.6063C13.3966 22.9319 13.5543 23.2325 13.7813 23.4767L17.7607 27.754L17.0557 33.5553C17.0157 33.8864 17.0649 34.2222 17.1983 34.5279C17.3316 34.8335 17.5442 35.098 17.8141 35.294C18.0839 35.4899 18.4013 35.6102 18.7332 35.6423C19.0652 35.6744 19.3997 35.6173 19.7021 35.4767L25 33.0142L30.2988 35.4771C30.6012 35.6176 30.9357 35.6746 31.2676 35.6424C31.5995 35.6102 31.9168 35.4899 32.1866 35.2939C32.4563 35.0979 32.6688 34.8334 32.8021 34.5277C32.9353 34.222 32.9844 33.8863 32.9443 33.5552L32.2393 27.7544L36.2193 23.4766C36.4464 23.2324 36.6041 22.9319 36.676 22.6062C36.7479 22.2805 36.7315 21.9416 36.6284 21.6244C36.5253 21.3072 36.3393 21.0233 36.0897 20.8022C35.84 20.5811 35.5353 20.4308 35.208 20.3667ZM30.7334 26.4367C30.5477 26.6361 30.4078 26.8736 30.3236 27.1328C30.2395 27.3919 30.213 27.6663 30.2461 27.9367L30.9307 33.5656L25.7881 31.175C25.5411 31.0601 25.2719 31.0006 24.9994 31.0007C24.727 31.0008 24.4579 31.0605 24.2109 31.1755L19.0693 33.5655L19.7529 27.9376C19.7865 27.6671 19.7604 27.3925 19.6763 27.1331C19.5923 26.8738 19.4525 26.636 19.2666 26.4366L15.4043 22.2853L20.97 21.1963C21.2374 21.1442 21.4901 21.0342 21.7105 20.874C21.9308 20.7138 22.1134 20.5073 22.2454 20.269L25 15.3135L27.7549 20.2695C27.887 20.5077 28.0696 20.7141 28.2899 20.8742C28.5103 21.0343 28.763 21.1442 29.0303 21.1963L34.5957 22.2852L30.7334 26.4367Z" fill="#D9A441"/>
<path d="M25 6.58842C21.4516 6.58846 17.9828 7.64073 15.0324 9.61217C12.082 11.5836 9.78249 14.3857 8.4246 17.664C7.06672 20.9424 6.71147 24.5498 7.40378 28.03C8.09609 31.5103 9.80487 34.707 12.314 37.2161C14.8232 39.7252 18.02 41.4339 21.5003 42.1261C24.9806 42.8184 28.5879 42.463 31.8663 41.105C35.1446 39.747 37.9466 37.4474 39.9179 34.497C41.8893 31.5465 42.9415 28.0778 42.9414 24.5293C42.9359 19.7727 41.0439 15.2125 37.6804 11.8491C34.3169 8.48569 29.7566 6.59379 25 6.58842ZM25 40.4707C21.8471 40.4707 18.7651 39.5357 16.1436 37.7841C13.5221 36.0324 11.4789 33.5427 10.2724 30.6299C9.06588 27.717 8.75021 24.5118 9.36531 21.4195C9.98042 18.3272 11.4987 15.4868 13.7281 13.2574C15.9575 11.028 18.7979 9.50973 21.8902 8.89463C24.9824 8.27953 28.1877 8.5952 31.1005 9.80173C34.0134 11.0083 36.5031 13.0514 38.2547 15.6729C40.0064 18.2944 40.9414 21.3765 40.9414 24.5293C40.9365 28.7557 39.2554 32.8076 36.2668 35.7962C33.2783 38.7847 29.2264 40.4658 25 40.4707Z" fill="#D9A441"/>
</svg>
