<svg width="64" height="50" viewBox="0 0 64 50" fill="none" xmlns="http://www.w3.org/2000/svg">
<path id="Vector" d="M57.1568 20.7068C57.9636 20.0165 58.6121 19.1603 59.058 18.1967C59.5039 17.233 59.7369 16.1845 59.7409 15.1227C59.7385 13.1526 58.9547 11.264 57.5614 9.8711C56.1681 8.47825 54.2792 7.69499 52.3091 7.69318C51.3305 7.68253 50.3596 7.86743 49.4534 8.23703C48.5472 8.60663 47.7239 9.15348 47.0319 9.84551C46.3398 10.5375 45.793 11.3608 45.4234 12.267C45.0538 13.1732 44.8689 14.1441 44.8795 15.1227C44.8795 17.3477 45.8818 19.325 47.4364 20.6864C46.6401 20.9278 45.8813 21.2789 45.1818 21.7295C44.2888 20.6973 43.1967 19.856 41.9709 19.2557C40.745 18.6555 39.4107 18.3088 38.0477 18.2364C40.4318 16.3614 41.9932 13.4864 41.9932 10.2273C41.9932 4.49318 37.5 0 31.7659 0C29.0544 0.00300779 26.4548 1.08149 24.5375 2.99882C22.6201 4.91616 21.5416 7.51575 21.5386 10.2273C21.5386 13.4932 23.1045 16.3727 25.4955 18.2477C24.1492 18.3313 22.8331 18.6824 21.6241 19.2806C20.4151 19.8789 19.3376 20.7122 18.4545 21.7318C17.7551 21.2812 16.9963 20.9301 16.2 20.6886C16.9994 19.9982 17.6414 19.1442 18.0825 18.1844C18.5236 17.2246 18.7535 16.1813 18.7568 15.125C18.7675 14.1464 18.5826 13.1755 18.213 12.2693C17.8434 11.3631 17.2965 10.5398 16.6045 9.84778C15.9125 9.15576 15.0892 8.6089 14.183 8.2393C13.2768 7.8697 12.3059 7.6848 11.3273 7.69545C9.35718 7.69726 7.46826 8.48052 6.07498 9.87337C4.6817 11.2662 3.89786 13.1549 3.89545 15.125C3.89545 17.3614 4.90909 19.3477 6.47955 20.7091C2.74545 21.8386 0 25.2705 0 29.3705V42.0455C0 42.3468 0.119724 42.6359 0.332833 42.849C0.545943 43.0621 0.834981 43.1818 1.13636 43.1818H15.9091V48.8636C15.9091 49.165 16.0288 49.4541 16.2419 49.6672C16.455 49.8803 16.7441 50 17.0455 50H46.5909C46.8923 50 47.1813 49.8803 47.3944 49.6672C47.6075 49.4541 47.7273 49.165 47.7273 48.8636V43.1818H62.5C62.8014 43.1818 63.0904 43.0621 63.3035 42.849C63.5166 42.6359 63.6364 42.3468 63.6364 42.0455V29.3705C63.6364 25.2705 60.8909 21.8386 57.1568 20.7068ZM52.3091 9.96591C55.2 9.96591 57.4682 12.2318 57.4682 15.1227C57.4664 16.4902 56.9222 17.8012 55.955 18.768C54.9878 19.7347 53.6766 20.2783 52.3091 20.2795C49.4182 20.2795 47.1523 18.0136 47.1523 15.1227C47.1523 12.2318 49.4182 9.96591 52.3091 9.96591ZM23.8114 10.2273C23.8114 5.76818 27.3068 2.27273 31.7659 2.27273C36.225 2.27273 39.7205 5.76818 39.7205 10.2273C39.7205 14.6864 36.225 18.1818 31.7659 18.1818C27.3795 18.1818 23.8114 14.6136 23.8114 10.2273ZM11.3273 9.96591C14.2182 9.96591 16.4841 12.2318 16.4841 15.1227C16.4841 18.0136 14.2182 20.2795 11.3273 20.2795C9.95994 20.2777 8.6491 19.7339 7.68204 18.7673C6.71498 17.8007 6.17059 16.4901 6.16818 15.1227C6.16818 12.2295 8.43409 9.96591 11.3273 9.96591ZM6.81818 40.9091V30.6818C6.81818 30.3804 6.69846 30.0914 6.48535 29.8783C6.27224 29.6652 5.9832 29.5455 5.68182 29.5455C5.38044 29.5455 5.0914 29.6652 4.87829 29.8783C4.66518 30.0914 4.54545 30.3804 4.54545 30.6818V40.9091H2.27273V29.3705C2.27273 25.6114 5.33182 22.5523 9.09091 22.5523H13.6364C14.8773 22.5523 16.0727 22.8977 17.1409 23.5568C17.0295 23.7636 16.9432 23.9795 16.8455 24.1932C16.7909 24.3159 16.7273 24.4318 16.6773 24.5568C16.4615 25.0861 16.2912 25.6328 16.1682 26.1909C16.1386 26.3182 16.1182 26.4477 16.0955 26.5795C15.9773 27.1824 15.9149 27.7948 15.9091 28.4091V40.9091H6.81818ZM45.4545 47.7273H40.9091V30.6818C40.9091 30.3804 40.7894 30.0914 40.5763 29.8783C40.3631 29.6652 40.0741 29.5455 39.7727 29.5455C39.4713 29.5455 39.1823 29.6652 38.9692 29.8783C38.7561 30.0914 38.6364 30.3804 38.6364 30.6818V47.7273H25V30.6818C25 30.3804 24.8803 30.0914 24.6672 29.8783C24.4541 29.6652 24.165 29.5455 23.8636 29.5455C23.5623 29.5455 23.2732 29.6652 23.0601 29.8783C22.847 30.0914 22.7273 30.3804 22.7273 30.6818V47.7273H18.1818V28.4091C18.1818 27.9182 18.2409 27.4432 18.3273 26.9795C18.3545 26.8273 18.3955 26.6795 18.4318 26.5295C18.5091 26.2159 18.6045 25.9114 18.7159 25.6136C18.7773 25.4545 18.8341 25.2932 18.9045 25.1386C19.0432 24.8364 19.2045 24.5477 19.3795 24.2659C19.4523 24.15 19.5091 24.0273 19.5864 23.9136C20.3151 22.8484 21.2924 21.9768 22.4336 21.3741C23.5749 20.7714 24.8457 20.4558 26.1364 20.4545H37.5C40.2159 20.4545 42.6136 21.8273 44.05 23.9114C44.1273 24.025 44.1841 24.1477 44.2568 24.2636C44.4295 24.5455 44.5932 24.8341 44.7318 25.1364C44.8023 25.2909 44.8614 25.4523 44.9205 25.6114C45.0341 25.9091 45.1295 26.2136 45.2045 26.5273C45.2409 26.6773 45.2818 26.825 45.3091 26.9773C45.3955 27.4432 45.4545 27.9182 45.4545 28.4091V47.7273ZM61.3636 40.9091H59.0909V30.6818C59.0909 30.3804 58.9712 30.0914 58.7581 29.8783C58.545 29.6652 58.2559 29.5455 57.9545 29.5455C57.6532 29.5455 57.3641 29.6652 57.151 29.8783C56.9379 30.0914 56.8182 30.3804 56.8182 30.6818V40.9091H47.7273V28.4091C47.7273 27.7886 47.6523 27.1795 47.5432 26.5773C47.4204 25.8846 47.2254 25.2066 46.9614 24.5545C46.9114 24.4295 46.8477 24.3136 46.7932 24.1909C46.6955 23.9773 46.6091 23.7614 46.4977 23.5545C47.5659 22.8955 48.7614 22.55 50.0023 22.55H54.5477C58.3068 22.55 61.3659 25.6091 61.3659 29.3682L61.3636 40.9091Z" fill="#D9A441"/>
</svg>
