<svg width="60" height="35" viewBox="0 0 60 35" fill="none" xmlns="http://www.w3.org/2000/svg">
<g id="Vector">
<path d="M8.49455 23.2623C8.3377 23.2623 8.18306 23.2252 8.04334 23.1539L0.534365 19.2861C0.302852 19.167 0.127919 18.961 0.0478004 18.7133C-0.032318 18.4656 -0.0111058 18.1962 0.106801 17.964L8.92803 0.540292C8.98659 0.424598 9.06741 0.321602 9.16586 0.237212C9.26431 0.152823 9.37845 0.0886983 9.50174 0.0485177C9.62503 0.00833704 9.75504 -0.00710932 9.88431 0.003064C10.0136 0.0132373 10.1396 0.0488297 10.2551 0.107801L17.3985 3.75294C17.6279 3.86964 17.8025 4.07145 17.8849 4.31521C17.9674 4.55896 17.9513 4.82531 17.8399 5.0573L9.38317 22.6998C9.32602 22.8184 9.24578 22.9245 9.14717 23.0117C9.04855 23.099 8.93353 23.1658 8.80882 23.2081C8.70758 23.2426 8.60151 23.2609 8.49455 23.2623ZM2.30669 17.9818L8.04433 20.9373L15.6479 5.07602L10.2393 2.31754L2.30669 17.9818Z" fill="#D9A441"/>
<path d="M18.7009 9.55264C18.5314 9.55259 18.3648 9.50882 18.2172 9.42555L15.3543 7.81283C15.2416 7.74937 15.1424 7.66432 15.0625 7.56255C14.9826 7.46077 14.9236 7.34426 14.8887 7.21966C14.8539 7.09507 14.8439 6.96482 14.8594 6.83637C14.8749 6.70792 14.9155 6.58377 14.979 6.47102C15.0424 6.35827 15.1275 6.25913 15.2292 6.17924C15.331 6.09936 15.4475 6.04031 15.5721 6.00545C15.6967 5.9706 15.827 5.96063 15.9554 5.97611C16.0839 5.99159 16.208 6.03222 16.3208 6.09567L18.6852 7.42664C19.6083 6.86706 21.6062 5.6622 22.885 4.94007C24.9725 3.75786 26.4424 3.92041 28.13 5.51935C28.3148 5.70013 28.4211 5.94629 28.426 6.20473C28.4309 6.46318 28.3341 6.7132 28.1563 6.90089C27.9786 7.08858 27.7342 7.1989 27.4759 7.20805C27.2175 7.2172 26.966 7.12446 26.7754 6.94982C25.7272 5.95676 25.1814 5.90554 23.8544 6.65427C22.2111 7.58328 19.2467 9.39009 19.2162 9.41274C19.0606 9.50591 18.8823 9.55432 18.7009 9.55264Z" fill="#D9A441"/>
<path d="M44.6178 26.6936C43.9 26.7121 43.1918 26.5251 42.5766 26.1548C41.6702 25.5499 37.6822 21.6387 36.8921 20.8614C36.7179 20.676 36.6222 20.4304 36.625 20.176C36.6278 19.9217 36.7289 19.6782 36.9071 19.4967C37.0854 19.3152 37.3269 19.2096 37.5812 19.2021C37.8355 19.1946 38.0828 19.2858 38.2714 19.4566C40.0447 21.2072 43.0869 24.1283 43.6671 24.5154C44.0411 24.6882 44.4548 24.7571 44.8646 24.7148C45.2744 24.6725 45.6653 24.5206 45.9961 24.275C46.151 24.1407 46.2745 23.974 46.358 23.7867C46.4414 23.5994 46.4827 23.396 46.4789 23.191C46.4752 22.986 46.4264 22.7843 46.3362 22.6002C46.246 22.416 46.1164 22.254 45.9567 22.1254C44.9498 20.9925 40.7668 16.968 39.8486 16.0853C36.6448 14.9109 33.5379 13.4873 30.5565 11.8274L29.5201 12.5052C29.2874 13.5853 28.6666 14.5426 27.7753 15.1957C27.4625 15.4421 27.0993 15.6168 26.7115 15.7074C26.3237 15.7979 25.9208 15.8022 25.5311 15.7198C25.0583 15.6609 24.603 15.5039 24.1944 15.259C23.7857 15.014 23.4327 14.6864 23.1578 14.2972C22.6339 13.1779 22.5751 11.8965 22.9943 10.7339C23.8347 7.37049 25.1981 6.50452 27.0847 5.30655L27.4995 5.04154C29.5782 3.70663 31.3624 2.99534 33.3209 3.87707C34.5385 4.42581 38.8605 6.09961 40.088 6.57447L44.2021 5.22577C44.4485 5.15082 44.7145 5.17538 44.9431 5.29419C45.1717 5.41299 45.3446 5.61659 45.4249 5.86137C45.5051 6.10614 45.4863 6.37261 45.3725 6.60368C45.2586 6.83476 45.0588 7.01206 44.8159 7.09759L40.3678 8.55565C40.1524 8.62591 39.9195 8.62035 39.7077 8.53988C39.4743 8.44925 33.979 6.33507 32.516 5.67501C31.6382 5.28094 30.7112 5.32133 28.5674 6.6986L28.1438 6.96952C26.4227 8.06207 25.5587 8.6118 24.9085 11.2117C24.5755 12.5436 24.7292 13.0835 24.8504 13.2805C25.006 13.5406 25.3666 13.646 25.941 13.7899C26.0642 13.8106 26.1906 13.8037 26.3109 13.7697C26.4312 13.7356 26.5424 13.6752 26.6365 13.5928C26.9144 13.3835 27.1464 13.1195 27.3184 12.817C27.4904 12.5146 27.5986 12.1801 27.6364 11.8343C27.6493 11.6858 27.6957 11.5421 27.7722 11.4141C27.8486 11.2861 27.9531 11.1772 28.0778 11.0954L29.9742 9.85509C30.1237 9.75787 30.2968 9.70304 30.475 9.69645C30.6531 9.68986 30.8298 9.73175 30.986 9.81765C31.053 9.8541 37.695 13.4864 40.6042 14.2509C40.766 14.2941 40.9143 14.3771 41.0358 14.4923C41.2486 14.6962 46.2572 19.492 47.4335 20.8191C47.7594 21.1346 48.0179 21.513 48.1931 21.9314C48.3685 22.3498 48.4569 22.7994 48.4533 23.253C48.4496 23.7066 48.3538 24.1547 48.1717 24.5702C47.9896 24.9857 47.7251 25.3599 47.394 25.67C46.636 26.3577 45.6409 26.7247 44.6178 26.6936Z" fill="#D9A441"/>
<path d="M46.6965 22.4564C46.4708 22.4563 46.252 22.3786 46.0766 22.2364C45.9013 22.0942 45.7802 21.896 45.7334 21.6752C45.6867 21.4543 45.7172 21.2241 45.8199 21.0231C45.9226 20.8221 46.0912 20.6624 46.2976 20.5708L49.7535 19.0398C49.8723 18.9837 50.0011 18.952 50.1324 18.9464C50.2636 18.9408 50.3947 18.9616 50.5178 19.0074C50.6409 19.0532 50.7536 19.1232 50.8493 19.2132C50.945 19.3032 51.0217 19.4115 51.0749 19.5316C51.1281 19.6517 51.1568 19.7812 51.1592 19.9126C51.1616 20.0439 51.1377 20.1744 51.089 20.2964C51.0402 20.4184 50.9675 20.5294 50.8752 20.6229C50.7829 20.7163 50.6729 20.7904 50.5515 20.8407L47.0946 22.3756C46.9689 22.4299 46.8334 22.4574 46.6965 22.4564Z" fill="#D9A441"/>
<path d="M51.2155 23.2623C51.0192 23.2622 50.8273 23.2034 50.6646 23.0936C50.5019 22.9837 50.3757 22.8277 50.3023 22.6456L42.8662 4.19725C42.8165 4.07422 42.7922 3.94241 42.7947 3.80975C42.7971 3.67708 42.8264 3.54629 42.8807 3.42521C42.935 3.30413 43.0132 3.19526 43.1105 3.10514C43.2079 3.01502 43.3225 2.94551 43.4475 2.90076L51.3938 0.0575576C51.6342 -0.0284301 51.8986 -0.0177369 52.1313 0.087384C52.3639 0.192505 52.5467 0.383843 52.6411 0.621075L59.9313 18.9196C59.979 19.0406 60.0023 19.1698 59.9998 19.2999C59.9973 19.4299 59.9691 19.5581 59.9168 19.6772C59.8645 19.7962 59.7892 19.9038 59.6951 19.9936C59.6011 20.0834 59.4902 20.1536 59.3688 20.2004L51.5682 23.1933C51.4559 23.2377 51.3363 23.2611 51.2155 23.2623ZM45.074 4.41005L51.7643 21.0072L57.7285 18.7216L51.1623 2.23282L45.074 4.41005ZM40.1796 29.6817C39.3675 29.706 38.5744 29.4331 37.9492 28.9142C36.6301 27.7419 33.2391 24.3529 33.0953 24.209C32.9158 24.0232 32.8165 23.7744 32.8188 23.5161C32.821 23.2578 32.9246 23.0107 33.1073 22.828C33.2899 22.6453 33.537 22.5417 33.7953 22.5395C34.0536 22.5372 34.3025 22.6365 34.4883 22.816C34.5228 22.8505 37.9827 26.3084 39.2575 27.4463C39.5218 27.6073 39.821 27.7021 40.1297 27.7227C40.4384 27.7433 40.7476 27.689 41.0308 27.5645C41.4934 27.4067 41.9038 27.1249 42.2172 26.7499C42.5306 26.3748 42.735 25.9208 42.8081 25.4375C42.8301 25.31 42.877 25.1881 42.9461 25.0788C43.0152 24.9694 43.1052 24.8747 43.2109 24.8001C43.3166 24.7255 43.4359 24.6724 43.5622 24.644C43.6884 24.6155 43.8189 24.6121 43.9464 24.6341C44.0739 24.6561 44.1959 24.703 44.3052 24.7721C44.4146 24.8412 44.5093 24.9312 44.5839 25.0369C44.6585 25.1426 44.7116 25.262 44.74 25.3882C44.7685 25.5144 44.7718 25.645 44.7499 25.7725C44.6159 26.6001 44.2603 27.3761 43.7209 28.0178C43.1814 28.6596 42.4782 29.1434 41.686 29.4176C41.2022 29.5894 40.693 29.6786 40.1796 29.6817Z" fill="#D9A441"/>
<path d="M35.5947 32.0697C34.7842 32.1043 33.9922 31.8216 33.3869 31.2816L29.8876 27.7823L31.2816 26.3882L34.7809 29.8876C34.9974 30.0092 35.2371 30.0839 35.4844 30.107C35.7316 30.1301 35.981 30.101 36.2163 30.0215C36.6682 29.9106 37.082 29.6802 37.4144 29.3546C37.7468 29.0289 37.9856 28.62 38.1059 28.1704C38.1423 28.045 38.2033 27.9281 38.2853 27.8265C38.3673 27.7249 38.4687 27.6406 38.5836 27.5785C38.6985 27.5164 38.8246 27.4778 38.9546 27.4649C39.0845 27.452 39.2157 27.4651 39.3406 27.5033C39.4655 27.5416 39.5815 27.6043 39.6819 27.6878C39.7823 27.7713 39.8651 27.8739 39.9254 27.9897C39.9858 28.1055 40.0226 28.2322 40.0336 28.3623C40.0446 28.4924 40.0296 28.6234 39.9895 28.7477C39.7154 29.7025 39.1389 30.5425 38.3466 31.1415C37.5543 31.7405 36.5879 32.0663 35.5947 32.0697Z" fill="#D9A441"/>
<path d="M31.8392 34.7011C31.0338 34.7183 30.2462 34.4631 29.6038 33.977C28.7163 33.2665 27.8247 32.5611 26.9291 31.8609C26.825 31.782 26.7376 31.6832 26.6721 31.5703C26.6065 31.4573 26.564 31.3325 26.5471 31.203C26.5303 31.0735 26.5393 30.9419 26.5737 30.816C26.6081 30.69 26.6673 30.5721 26.7477 30.4692C26.828 30.3663 26.9281 30.2804 27.042 30.2165C27.1559 30.1526 27.2813 30.1119 27.4111 30.097C27.5408 30.082 27.6722 30.093 27.7977 30.1292C27.9231 30.1655 28.0401 30.2263 28.1418 30.3082C28.1418 30.3082 29.3723 31.2688 30.8353 32.4392C31.147 32.6247 31.5015 32.7261 31.8641 32.7335C32.2268 32.741 32.5851 32.6541 32.9041 32.4815C33.1894 32.3589 33.4307 32.1527 33.5964 31.8901C33.7621 31.6275 33.8443 31.3209 33.8322 31.0107C33.8242 30.7495 33.9203 30.4959 34.0993 30.3056C34.2784 30.1153 34.5257 30.0039 34.7868 29.9959C35.0472 29.9913 35.2991 30.0887 35.4887 30.2672C35.6782 30.4458 35.7905 30.6914 35.8015 30.9515C35.8248 31.6378 35.6459 32.3157 35.2872 32.9012C34.9286 33.4867 34.4058 33.954 33.7839 34.245C33.1793 34.5443 32.5138 34.7003 31.8392 34.7011Z" fill="#D9A441"/>
<path d="M24.4563 34.245C24.1361 34.2438 23.8192 34.1802 23.5233 34.0578C22.72 33.6636 22.0578 33.0313 21.6269 32.247C20.9277 32.3827 20.2032 32.2738 19.5748 31.9387C19.0476 31.5932 18.5945 31.1463 18.2417 30.624C17.8889 30.1017 17.6435 29.5145 17.5197 28.8965C17.4678 28.6449 17.5162 28.3829 17.6547 28.1665C18.4556 26.9173 19.6634 24.9755 19.8437 24.5706C20.0059 24.2476 20.2361 23.9634 20.5183 23.7376C20.8006 23.5118 21.1283 23.3496 21.4791 23.2623C21.9562 23.1372 22.4553 23.1205 22.9397 23.2132C23.4242 23.3059 23.8817 23.5058 24.279 23.7982C24.7192 24.0896 25.0727 24.4943 25.3022 24.9697C25.5318 25.4451 25.6289 25.9736 25.5833 26.4996C26.0519 26.5197 26.5108 26.6402 26.9288 26.8528C27.3469 27.0654 27.7145 27.3652 28.0069 27.732C28.2908 28.1757 28.4721 28.6773 28.5373 29.2001C28.6026 29.7228 28.5503 30.2536 28.3842 30.7535C27.8674 32.1957 26.8065 33.3783 25.4287 34.0479C25.121 34.178 24.7903 34.245 24.4563 34.245ZM23.2859 31.1703C23.5953 31.6934 24.1479 32.4441 24.6652 32.2283C25.5239 31.7811 26.185 31.0297 26.5192 30.121C26.585 29.92 26.6102 29.7078 26.5933 29.4969C26.5764 29.286 26.5177 29.0806 26.4207 28.8925C26.2709 28.7458 26.0929 28.6307 25.8976 28.5542C25.7023 28.4777 25.4935 28.4413 25.2838 28.4472L23.2859 31.1703ZM19.5511 28.8551C19.7079 29.4025 20.0476 29.8796 20.5136 30.2068C20.6591 30.2814 20.8184 30.3254 20.9816 30.3361C21.1448 30.3468 21.3084 30.3239 21.4624 30.2688L23.5657 26.6631C23.6493 26.4403 23.6547 26.1956 23.5809 25.9694C23.5072 25.7431 23.3587 25.5486 23.1598 25.4178C23.0085 25.2986 22.8339 25.2123 22.6473 25.1646C22.4606 25.117 22.2661 25.1089 22.0761 25.141C21.9084 25.1686 21.7554 25.2532 21.6427 25.3804C21.3826 25.9567 20.1314 27.9428 19.5511 28.8551Z" fill="#D9A441"/>
<path d="M16.9266 30.3939C16.6932 30.3946 16.4609 30.3614 16.237 30.2954C14.5494 29.7881 13.8884 27.6029 13.8184 27.3557C13.7831 27.2302 13.773 27.099 13.7887 26.9697C13.8044 26.8403 13.8457 26.7153 13.91 26.602C14.7474 25.1474 15.6736 23.7459 16.6833 22.4052C17.1902 21.7458 17.9247 21.2989 18.7433 21.1519C19.562 21.0049 20.406 21.1683 21.1107 21.6102C22.0407 22.2554 22.7224 23.6593 21.5816 25.4937C21.5133 25.6037 21.4241 25.6991 21.319 25.7746C21.2138 25.8501 21.0949 25.9041 20.9688 25.9336C20.8428 25.9631 20.7122 25.9675 20.5845 25.9465C20.4568 25.9256 20.3345 25.8797 20.2245 25.8114C20.1145 25.7432 20.0191 25.6539 19.9436 25.5488C19.8681 25.4437 19.8141 25.3247 19.7846 25.1987C19.7551 25.0727 19.7507 24.9421 19.7716 24.8144C19.7926 24.6866 19.8385 24.5643 19.9068 24.4543C20.16 24.0455 20.3797 23.5027 19.9866 23.2298C19.6993 23.0728 19.3651 23.0245 19.0452 23.0936C18.7252 23.1627 18.4407 23.3446 18.2438 23.6061C17.3784 24.7561 16.5775 25.9533 15.8449 27.1921C16.0607 27.7074 16.4281 28.2975 16.8035 28.4088C17.1355 28.5073 17.5916 28.1665 17.8389 27.9556C18.0367 27.7848 18.2943 27.6995 18.555 27.7185C18.8156 27.7375 19.0581 27.8593 19.229 28.0571C19.3999 28.2549 19.4852 28.5125 19.4661 28.7732C19.4471 29.0339 19.3253 29.2763 19.1275 29.4472C18.5352 30.0225 17.7517 30.3596 16.9266 30.3939Z" fill="#D9A441"/>
<path d="M14.7642 28.0699C14.6559 28.0698 14.5484 28.0518 14.446 28.0167C14.2795 27.9606 10.3526 26.5882 10.3526 23.5125C10.3525 23.4092 10.3684 23.3065 10.3999 23.2081C10.7563 22.2271 11.2445 21.2991 11.851 20.4496C12.3024 19.9103 12.9258 19.5429 13.6162 19.4094C14.3067 19.2759 15.0221 19.3844 15.642 19.7167C16.2255 19.9752 16.6908 20.4432 16.9462 21.0281C17.2015 21.613 17.2283 22.2724 17.0212 22.8761C16.3769 24.9509 15.7159 27.3222 15.709 27.3468C15.6511 27.5539 15.5271 27.7365 15.3558 27.8665C15.1845 27.9965 14.9753 28.0669 14.7602 28.067L14.7642 28.0699ZM12.3308 23.6652C12.4293 24.5873 13.3731 25.2888 14.1297 25.7095C14.3869 24.811 14.7681 23.5037 15.1425 22.2948C15.1769 22.2181 15.1944 22.1348 15.194 22.0507C15.1937 21.9666 15.1753 21.8835 15.1403 21.807C15.1052 21.7306 15.0542 21.6624 14.9907 21.6073C14.9272 21.5521 14.8527 21.5111 14.7721 21.487C14.5685 21.3722 14.3355 21.3203 14.1025 21.3378C13.8694 21.3553 13.6468 21.4415 13.4628 21.5855C13.006 22.2325 12.6261 22.9304 12.3308 23.6652Z" fill="#D9A441"/>
<path d="M12.1466 22.7983C11.9482 22.798 11.7546 22.738 11.5909 22.6259L9.00684 20.8526C8.79115 20.7049 8.64294 20.4777 8.59481 20.2208C8.54668 19.9639 8.60258 19.6984 8.7502 19.4827C8.89783 19.267 9.12509 19.1188 9.38199 19.0706C9.6389 19.0225 9.90439 19.0784 10.1201 19.226L12.7042 20.9993C12.8783 21.1181 13.0096 21.2896 13.0791 21.4886C13.1485 21.6875 13.1523 21.9035 13.0899 22.1048C13.0275 22.3061 12.9022 22.482 12.7324 22.6069C12.5626 22.7317 12.3573 22.7988 12.1466 22.7983Z" fill="#D9A441"/>
</g>
</svg>
