<svg width="35" height="50" viewBox="0 0 35 50" fill="none" xmlns="http://www.w3.org/2000/svg">
<g id="Vector">
<path d="M24.196 21.9547C22.5039 24.5985 19.691 27.3903 16.2646 26.8721C12.8805 26.3645 10.48 23.192 9.04177 20.3472C8.83026 19.9348 8.33323 19.8925 7.95252 20.0617C7.65642 20.1992 7.30744 19.9242 7.09593 19.7233C6.66235 19.3215 6.41912 18.7504 6.24992 18.2005C6.04899 17.5342 5.80576 15.747 6.74695 15.4615C7.20169 15.324 7.36031 14.9222 7.29686 14.4886C7.29686 14.4886 7.29686 14.4886 7.29686 14.478C7.23341 14.0444 6.69408 13.8224 6.32395 13.9281C5.86922 14.055 5.71059 14.478 5.77404 14.901C5.77404 14.901 5.77404 14.901 5.77404 14.9116C5.95382 14.5838 6.14417 14.2559 6.32395 13.9387C4.33582 14.5521 4.27237 17.143 4.7694 18.7927C5.27701 20.453 6.86328 22.3248 8.75623 21.4365C8.39668 21.3413 8.03712 21.2461 7.66699 21.151C9.32729 24.4398 12.1509 27.8556 16.0002 28.4267C20.114 29.04 23.498 25.9838 25.5602 22.7478C26.1207 21.8912 24.7459 21.0981 24.196 21.9547ZM13.5151 35.7341C15.7887 36.6013 18.3056 36.5484 20.611 35.8293C21.5839 35.5332 21.1715 33.9998 20.188 34.2959C18.1258 34.9304 15.9685 34.9727 13.9381 34.2007C12.9863 33.8412 12.5739 35.3745 13.5151 35.7341Z" fill="#D9A441"/>
<path d="M34.1261 49.2069C34.1261 46.6371 34.1261 44.0568 34.1261 41.487C34.1261 40.4295 34.1261 39.372 34.1261 38.3144C34.1261 36.0514 32.9628 33.9892 31.0698 32.7731C29.9066 32.0222 28.5212 31.853 27.1993 31.5886C26.0572 31.356 24.9257 31.1339 23.7835 30.9013C23.9422 31.0176 24.1008 31.1445 24.2594 31.2608C23.921 30.7638 23.6143 30.2139 23.2125 29.7591C22.6309 29.1035 21.3724 29.0189 21.0763 29.9812C20.8225 30.8167 20.5793 31.6627 20.3255 32.4981C19.3843 35.6601 18.4431 38.8221 17.5019 41.984C17.1 43.3271 16.6982 44.6701 16.2963 46.0237C16.8039 46.0237 17.3115 46.0237 17.8297 46.0237C16.3492 41.0217 14.8687 36.0302 13.3882 31.0282C13.2718 30.6475 13.1661 30.2667 13.0498 29.8755C12.87 29.2515 12.1826 29.2092 11.6433 29.2938C11.252 29.3573 10.9664 29.7063 10.7444 30.0024C10.4483 30.4148 10.1627 30.8378 9.86663 31.2502C10.0253 31.1339 10.1839 31.007 10.3425 30.8907C9.07349 31.1445 7.81505 31.3983 6.54603 31.6521C6.08072 31.7473 5.60484 31.8424 5.13953 31.9376C3.95511 32.1703 2.87644 32.7731 1.99871 33.5873C0.61336 34.8669 0 36.6964 0 38.5471C0 39.8267 0 41.0957 0 42.3753C0 44.649 0 46.9226 0 49.1963C0 50.2221 1.58627 50.2221 1.58627 49.1963C1.58627 46.6265 1.58627 44.0462 1.58627 41.4764C1.58627 40.4189 1.58627 39.3614 1.58627 38.3039C1.58627 36.2311 2.87644 34.3488 4.84342 33.6508C5.40391 33.4499 6.02784 33.3653 6.62005 33.2489C7.49779 33.0692 8.3861 32.9 9.26384 32.7202C9.76088 32.625 10.2685 32.5193 10.7655 32.4241C11.1568 32.3501 11.4423 31.7684 11.6538 31.4723C11.7807 31.2925 11.9076 31.1022 12.0345 30.9224C12.0663 30.8695 12.1086 30.8167 12.1403 30.7744C12.246 30.6263 12.0134 30.8484 12.0663 30.859C11.8865 30.6792 11.6961 30.4888 11.5164 30.309C12.9969 35.3111 14.4774 40.3026 15.9579 45.3046C16.0742 45.6853 16.18 46.066 16.2963 46.4573C16.5184 47.2187 17.5971 47.2082 17.8297 46.4573C19.3208 41.4553 20.8119 36.4638 22.2924 31.4617C22.4088 31.081 22.5251 30.7003 22.6309 30.309C22.4511 30.4888 22.2607 30.6792 22.0809 30.859C22.0598 30.8695 21.8906 30.6157 22.0704 30.8695C22.1655 31.0176 22.2713 31.1656 22.3665 31.3031C22.5357 31.5569 22.7155 31.8107 22.8847 32.0539C23.2019 32.5193 23.9104 32.5298 24.4181 32.625C25.7822 32.9 27.157 33.1749 28.5212 33.4499C30.6574 33.8729 32.3177 35.6178 32.5186 37.8068C32.6032 38.7375 32.5398 39.6998 32.5398 40.6304C32.5398 43.4857 32.5398 46.3304 32.5398 49.1857C32.5398 50.2327 34.1261 50.2327 34.1261 49.2069Z" fill="#D9A441"/>
<path d="M11.6327 39.8373C11.601 40.9054 10.7867 41.7197 9.71858 41.7514C8.65049 41.7831 7.8362 40.8631 7.80447 39.8373C7.77275 38.7692 8.69279 37.9549 9.71858 37.9232C10.7972 37.902 11.6115 38.8221 11.6327 39.8373C11.6644 40.8631 13.2507 40.8631 13.219 39.8373C13.1661 37.902 11.6644 36.3898 9.71858 36.3369C7.78332 36.284 6.27107 37.976 6.2182 39.8373C6.16532 41.7725 7.85735 43.2848 9.71858 43.3377C11.6538 43.3905 13.1661 41.6985 13.219 39.8373C13.2507 38.8115 11.6644 38.8221 11.6327 39.8373ZM24.0056 44.7864C23.2442 44.7547 23.2125 44.0885 23.2125 43.5069C23.2125 42.7137 23.2125 41.9206 23.2125 41.1274C23.2125 40.6198 23.2125 40.1122 23.2125 39.6046C23.2125 38.526 23.8999 37.5425 24.9045 37.1618C25.9832 36.7599 27.1041 37.13 27.8444 37.9655C28.3414 38.526 28.426 39.2451 28.426 39.9536C28.426 41.2966 28.426 42.6397 28.426 43.9722C28.426 44.4269 28.0771 44.7547 27.6329 44.7759C26.6177 44.8182 26.6071 46.4044 27.6329 46.3621C28.9231 46.2987 30.0123 45.3152 30.0123 43.9827C30.0123 43.4434 30.0123 42.9041 30.0123 42.3647C30.0123 40.8208 30.2238 39.1182 29.547 37.6905C28.4155 35.3005 25.1477 34.74 23.1702 36.3686C22.1973 37.1723 21.6579 38.3462 21.6368 39.6046C21.6262 40.1122 21.6368 40.6198 21.6368 41.1274C21.6368 42.0369 21.6368 42.9358 21.6368 43.8453C21.6368 45.2412 22.6097 46.3093 24.0162 46.3727C25.0314 46.415 25.0314 44.8288 24.0056 44.7864ZM13.219 9.31735C13.5679 9.41252 13.9169 9.55 14.2553 9.6769C14.3399 9.70863 14.4139 9.74035 14.4986 9.77208C14.6783 9.8461 14.3716 9.7192 14.6149 9.82495C14.8264 9.92013 15.0379 10.0153 15.2494 10.1211C15.7253 10.3537 16.2012 10.6075 16.6559 10.8825C19.0882 12.3207 21.1398 14.3617 22.4934 16.9315C24.2065 20.1886 24.4498 24.0063 23.8999 27.5912C23.773 28.3844 24.5873 28.9026 25.2218 28.3632C26.6388 27.1682 27.7704 25.4868 28.6058 23.8476C30.5516 20.0406 30.7949 15.6942 29.547 11.6333C28.0982 6.93794 25.0526 2.46464 20.3043 0.719738C17.0049 -0.496405 13.0286 -0.168575 10.0253 1.68208C8.55531 2.58097 7.19111 4.00861 6.90558 5.77467C7.02191 5.61604 7.14881 5.45741 7.26514 5.29878C6.5143 5.80639 6.05957 6.67356 5.73174 7.48784C4.8117 9.81438 5.19241 12.5745 5.76347 14.9328C5.85864 15.3452 6.33452 15.6096 6.73638 15.4827C9.90893 14.5203 12.5633 11.7919 14.1073 8.96837C14.6043 8.06948 13.2295 7.26577 12.7325 8.16465C11.7173 10.0153 10.3319 11.6122 8.57646 12.786C8.03713 13.1456 7.47664 13.4628 6.88443 13.7272C6.84213 13.7483 6.81041 13.7589 6.76811 13.7801C6.57775 13.8647 6.92673 13.7166 6.75753 13.7906C6.67293 13.8224 6.5989 13.8541 6.5143 13.8858C6.45085 13.907 6.37682 13.9387 6.31337 13.9598C6.6412 14.1396 6.96903 14.33 7.28629 14.5098C6.78926 12.4264 6.472 10.1316 7.20169 8.0589C7.28629 7.83682 7.33917 7.69935 7.50837 7.40324C7.56124 7.29749 7.62469 7.20231 7.68815 7.10714C7.71987 7.06484 7.7516 7.02254 7.77275 6.98024C7.85735 6.86391 7.65642 7.12829 7.7939 6.95908C7.8785 6.85333 7.97367 6.75816 8.06885 6.66298C8.2592 6.4832 7.95252 6.73701 8.05828 6.66298C8.42841 6.40918 8.42841 6.02847 8.55531 5.63719C8.57646 5.57374 8.59761 5.49971 8.62933 5.43626C8.71394 5.21418 8.56588 5.57374 8.66106 5.36224C8.73509 5.20361 8.80911 5.05556 8.90429 4.9075C9.21097 4.38932 9.61283 3.97689 10.1416 3.53273C11.2203 2.64442 12.7431 2.06278 14.2024 1.77725C17.9778 1.04757 21.7954 2.52809 24.3652 5.35166C26.163 7.33979 27.4214 9.95186 28.1617 12.511C28.7644 14.6155 28.9442 16.8469 28.5847 19.0148C28.204 21.2356 27.2945 23.2977 25.9938 25.1272C25.6342 25.6243 25.2218 26.1424 24.7036 26.6818C24.5132 26.8827 24.3229 27.073 24.1114 27.2528C24.5555 27.5066 24.9997 27.771 25.4333 28.0248C26.0889 23.7736 25.7399 19.3955 23.572 15.6096C22.1021 13.0398 19.8813 10.9565 17.3433 9.45482C16.1906 8.77801 14.9321 8.15408 13.6314 7.8051C12.6585 7.51957 12.2355 9.04239 13.219 9.31735Z" fill="#D9A441"/>
<path d="M26.6177 36.1994C26.6177 34.8352 26.6177 33.4816 26.6177 32.1174C26.6177 31.7473 26.3745 31.4617 26.0361 31.356C26.1524 31.4194 26.2687 31.4935 26.385 31.5569C25.6659 30.8378 24.5344 31.9588 25.2641 32.6779C25.3698 32.7836 25.4756 32.8365 25.613 32.8788C25.4227 32.625 25.2218 32.3712 25.0314 32.1174C25.0314 33.4816 25.0314 34.8352 25.0314 36.1994C25.0314 37.2252 26.6177 37.2252 26.6177 36.1994Z" fill="#D9A441"/>
<path d="M12.9546 30.0658C12.9546 28.6276 12.9546 27.1894 12.9546 25.7406C12.9546 24.7148 11.3683 24.7148 11.3683 25.7406C11.3683 27.1788 11.3683 28.617 11.3683 30.0658C11.3683 31.0916 12.9546 31.0916 12.9546 30.0658Z" fill="#D9A441"/>
<path d="M22.7683 30.0764C22.7683 28.6382 22.7683 27.1894 22.7683 25.7512C22.7683 24.7254 21.1821 24.7254 21.1821 25.7512C21.1821 27.1894 21.1821 28.6382 21.1821 30.0764C21.1821 31.0916 22.7683 31.0916 22.7683 30.0764Z" fill="#D9A441"/>
<path d="M10.5223 37.1406C10.5223 35.3745 10.5223 33.6085 10.5223 31.8424C10.5223 30.8167 8.93601 30.8167 8.93601 31.8424C8.93601 33.6085 8.93601 35.3745 8.93601 37.1406C8.93601 38.1558 10.5223 38.1558 10.5223 37.1406Z" fill="#D9A441"/>
<path d="M10.6386 30.2033C10.3319 30.51 10.3319 31.0176 10.6386 31.3243C10.9453 31.6309 11.4529 31.6309 11.7596 31.3243C12.0663 31.0176 12.0663 30.51 11.7596 30.2033C11.4529 29.8966 10.9453 29.8966 10.6386 30.2033Z" fill="#D9A441"/>
<path d="M33.3329 48.4137C28.9971 48.4137 24.6613 48.4137 20.3149 48.4137C14.3399 48.4137 8.36495 48.4137 2.38999 48.4137C1.86123 48.4137 1.3219 48.4137 0.793137 48.4137C-0.232654 48.4137 -0.232654 50 0.793137 50C5.12895 50 9.46477 50 13.8112 50C19.7861 50 25.7611 50 31.7361 50C32.2648 50 32.8042 50 33.3329 50C34.3587 50 34.3587 48.4137 33.3329 48.4137Z" fill="#D9A441"/>
</g>
</svg>
