<svg width="20" height="21" viewBox="0 0 20 21" fill="none" xmlns="http://www.w3.org/2000/svg">
<path d="M1 21C1 19.6282 1.54495 18.3126 2.51496 17.3426C3.48498 16.3725 4.8006 15.8276 6.17241 15.8276M11 21C11 20.3207 10.8662 19.6482 10.6063 19.0206C10.3463 18.3931 9.96534 17.8229 9.48504 17.3426C9.00473 16.8622 8.43453 16.4813 7.80698 16.2213C7.17944 15.9614 6.50684 15.8276 5.82759 15.8276M8.93103 12.3793C8.93103 9.71035 11.2448 7.55172 14.1034 7.55172M18.931 12.3793C18.931 9.71035 16.6172 7.55172 13.7586 7.55172M8.93103 12.5517C8.93103 14.3609 7.46438 15.8276 5.65517 15.8276C3.84596 15.8276 2.37931 14.3609 2.37931 12.5517C2.37931 10.7425 3.84596 9.27586 5.65517 9.27586C7.46438 9.27586 8.93103 10.7425 8.93103 12.5517ZM16.8621 4.27586C16.8621 6.08507 15.3954 7.55172 13.5862 7.55172C11.777 7.55172 10.3103 6.08507 10.3103 4.27586C10.3103 2.46665 11.777 1 13.5862 1C15.3954 1 16.8621 2.46665 16.8621 4.27586Z" stroke="#D9A441" stroke-width="1.5" stroke-miterlimit="10"/>
</svg>
