<svg width="37" height="52" viewBox="0 0 37 52" fill="none" xmlns="http://www.w3.org/2000/svg">
<g id="Vector">
<path d="M30.0189 16.4117C29.9017 16.1226 29.6283 15.9352 29.3159 15.9352C29.0034 15.9352 28.73 16.1226 28.6129 16.4117L26.5116 21.6452C26.4726 21.7389 26.457 21.8327 26.457 21.9264V41.0094C26.457 42.5873 27.738 43.8605 29.3159 43.8605C30.8938 43.8605 32.167 42.5794 32.167 41.0094V21.9342C32.167 21.8405 32.1514 21.7389 32.1123 21.653L30.0189 16.4117ZM27.9723 22.6919H30.6516V37.6349H27.9723V22.6919ZM29.3159 18.7316L30.2923 21.1765H28.3395L29.3159 18.7316ZM29.3159 42.3529C28.5738 42.3529 27.9802 41.7514 27.9802 41.0094V39.1503H30.6594V41.0094C30.6516 41.7514 30.058 42.3529 29.3159 42.3529ZM9.97516 14.7557L6.90533 17.8255L5.99922 16.9194C5.70239 16.6226 5.2259 16.6226 4.92907 16.9194C4.63225 17.2162 4.63225 17.6927 4.92907 17.9895L6.37416 19.4346C6.52257 19.583 6.71786 19.6533 6.91314 19.6533C7.10842 19.6533 7.3037 19.583 7.45212 19.4346L11.0609 15.8258C11.3578 15.529 11.3578 15.0525 11.0609 14.7557C10.7485 14.4588 10.272 14.4588 9.97516 14.7557ZM21.1531 16.3335H13.2168C12.795 16.3335 12.4591 16.6694 12.4591 17.0912C12.4591 17.513 12.795 17.8489 13.2168 17.8489H21.1531C21.5749 17.8489 21.9108 17.513 21.9108 17.0912C21.9108 16.6772 21.5749 16.3335 21.1531 16.3335ZM9.97516 23.2934L6.90533 26.3632L5.99922 25.4571C5.70239 25.1603 5.2259 25.1603 4.92907 25.4571C4.63225 25.7539 4.63225 26.2304 4.92907 26.5273L6.37416 27.9723C6.51476 28.1129 6.71005 28.1911 6.91314 28.1911C7.11623 28.1911 7.3037 28.1129 7.45212 27.9723L11.0609 24.3635C11.3578 24.0667 11.3578 23.5902 11.0609 23.2934C10.7485 22.9966 10.272 22.9966 9.97516 23.2934ZM21.1531 24.8713H13.2168C12.795 24.8713 12.4591 25.2072 12.4591 25.629C12.4591 26.0508 12.795 26.3867 13.2168 26.3867H21.1531C21.5749 26.3867 21.9108 26.0508 21.9108 25.629C21.9108 25.215 21.5749 24.8713 21.1531 24.8713ZM9.97516 31.8311L6.90533 34.901L5.99922 33.9948C5.70239 33.698 5.2259 33.698 4.92907 33.9948C4.63225 34.2917 4.63225 34.7682 4.92907 35.065L6.37416 36.5101C6.51476 36.6507 6.71005 36.7288 6.91314 36.7288C7.11623 36.7288 7.3037 36.6507 7.45212 36.5101L11.0609 32.9013C11.3578 32.6044 11.3578 32.1279 11.0609 31.8311C10.7485 31.5343 10.272 31.5343 9.97516 31.8311ZM21.1531 33.4168H13.2168C12.795 33.4168 12.4591 33.7527 12.4591 34.1745C12.4591 34.5963 12.795 34.9322 13.2168 34.9322H21.1531C21.5749 34.9322 21.9108 34.5963 21.9108 34.1745C21.9108 33.7527 21.5749 33.4168 21.1531 33.4168ZM9.97516 40.3767L6.90533 43.4465L5.99922 42.5404C5.70239 42.2436 5.2259 42.2436 4.92907 42.5404C4.63225 42.8372 4.63225 43.3137 4.92907 43.6105L6.37416 45.0556C6.52257 45.204 6.71786 45.2743 6.91314 45.2743C7.10842 45.2743 7.3037 45.204 7.45212 45.0556L11.0609 41.4468C11.3578 41.15 11.3578 40.6735 11.0609 40.3767C10.7485 40.0798 10.272 40.0798 9.97516 40.3767ZM21.1531 41.9545H13.2168C12.795 41.9545 12.4591 42.2904 12.4591 42.7122C12.4591 43.134 12.795 43.4699 13.2168 43.4699H21.1531C21.5749 43.4699 21.9108 43.134 21.9108 42.7122C21.9108 42.2904 21.5749 41.9545 21.1531 41.9545Z" fill="#D9A441"/>
<path d="M32.995 6.17888H26.4648L26.2382 5.429C26.043 4.78066 25.4493 4.34323 24.7697 4.34323H22.5513C22.1529 2.42165 20.4657 1 18.4348 1C16.4038 1 14.7166 2.42165 14.3182 4.34323H12.0998C11.4202 4.34323 10.8344 4.78066 10.6313 5.429L10.397 6.17888H3.87455C2.28886 6.17888 1 7.49117 1 9.10811V48.0708C1 49.6877 2.28886 51 3.87455 51H32.995C34.5729 51 35.8617 49.6877 35.8617 48.0708V9.10811C35.8617 7.49117 34.5807 6.17888 32.995 6.17888ZM14.99 5.85862C15.3962 5.85862 15.7321 5.53835 15.7477 5.12436C15.7946 3.66365 16.9741 2.51539 18.4348 2.51539C19.8955 2.51539 21.075 3.66365 21.1219 5.12436C21.1375 5.53054 21.4734 5.85862 21.8796 5.85862H24.7697L25.668 8.81128L11.1859 8.78785L12.0998 5.85862H14.99ZM34.3542 48.063C34.3542 48.8441 33.7449 49.4768 33.0028 49.4768H3.88236C3.13248 49.4768 2.5232 48.8441 2.5232 48.063V9.10811C2.5232 8.32698 3.13248 7.69427 3.88236 7.69427H9.94391L9.74082 8.3426C9.60022 8.81128 9.67833 9.3112 9.97516 9.70177C10.2642 10.1001 10.7172 10.3267 11.2093 10.3267H25.6758C26.1679 10.3267 26.621 10.1001 26.91 9.70177C27.199 9.30339 27.285 8.81128 27.1444 8.3426L26.9413 7.69427H33.0028C33.7527 7.69427 34.3542 8.32698 34.3542 9.10811V48.063Z" fill="#D9A441"/>
<path d="M30.0189 16.4117C29.9017 16.1226 29.6283 15.9352 29.3159 15.9352C29.0034 15.9352 28.73 16.1226 28.6129 16.4117L26.5116 21.6452C26.4726 21.7389 26.457 21.8327 26.457 21.9264V41.0094C26.457 42.5873 27.738 43.8605 29.3159 43.8605C30.8938 43.8605 32.167 42.5794 32.167 41.0094V21.9342C32.167 21.8405 32.1514 21.7389 32.1123 21.653L30.0189 16.4117ZM27.9723 22.6919H30.6516V37.6349H27.9723V22.6919ZM29.3159 18.7316L30.2923 21.1765H28.3395L29.3159 18.7316ZM29.3159 42.3529C28.5738 42.3529 27.9802 41.7514 27.9802 41.0094V39.1503H30.6594V41.0094C30.6516 41.7514 30.058 42.3529 29.3159 42.3529ZM9.97516 14.7557L6.90533 17.8255L5.99922 16.9194C5.70239 16.6226 5.2259 16.6226 4.92907 16.9194C4.63225 17.2162 4.63225 17.6927 4.92907 17.9895L6.37416 19.4346C6.52257 19.583 6.71786 19.6533 6.91314 19.6533C7.10842 19.6533 7.3037 19.583 7.45212 19.4346L11.0609 15.8258C11.3578 15.529 11.3578 15.0525 11.0609 14.7557C10.7485 14.4588 10.272 14.4588 9.97516 14.7557ZM21.1531 16.3335H13.2168C12.795 16.3335 12.4591 16.6694 12.4591 17.0912C12.4591 17.513 12.795 17.8489 13.2168 17.8489H21.1531C21.5749 17.8489 21.9108 17.513 21.9108 17.0912C21.9108 16.6772 21.5749 16.3335 21.1531 16.3335ZM9.97516 23.2934L6.90533 26.3632L5.99922 25.4571C5.70239 25.1603 5.2259 25.1603 4.92907 25.4571C4.63225 25.7539 4.63225 26.2304 4.92907 26.5273L6.37416 27.9723C6.51476 28.1129 6.71005 28.1911 6.91314 28.1911C7.11623 28.1911 7.3037 28.1129 7.45212 27.9723L11.0609 24.3635C11.3578 24.0667 11.3578 23.5902 11.0609 23.2934C10.7485 22.9966 10.272 22.9966 9.97516 23.2934ZM21.1531 24.8713H13.2168C12.795 24.8713 12.4591 25.2072 12.4591 25.629C12.4591 26.0508 12.795 26.3867 13.2168 26.3867H21.1531C21.5749 26.3867 21.9108 26.0508 21.9108 25.629C21.9108 25.215 21.5749 24.8713 21.1531 24.8713ZM9.97516 31.8311L6.90533 34.901L5.99922 33.9948C5.70239 33.698 5.2259 33.698 4.92907 33.9948C4.63225 34.2917 4.63225 34.7682 4.92907 35.065L6.37416 36.5101C6.51476 36.6507 6.71005 36.7288 6.91314 36.7288C7.11623 36.7288 7.3037 36.6507 7.45212 36.5101L11.0609 32.9013C11.3578 32.6044 11.3578 32.1279 11.0609 31.8311C10.7485 31.5343 10.272 31.5343 9.97516 31.8311ZM21.1531 33.4168H13.2168C12.795 33.4168 12.4591 33.7527 12.4591 34.1745C12.4591 34.5963 12.795 34.9322 13.2168 34.9322H21.1531C21.5749 34.9322 21.9108 34.5963 21.9108 34.1745C21.9108 33.7527 21.5749 33.4168 21.1531 33.4168ZM9.97516 40.3767L6.90533 43.4465L5.99922 42.5404C5.70239 42.2436 5.2259 42.2436 4.92907 42.5404C4.63225 42.8372 4.63225 43.3137 4.92907 43.6105L6.37416 45.0556C6.52257 45.204 6.71786 45.2743 6.91314 45.2743C7.10842 45.2743 7.3037 45.204 7.45212 45.0556L11.0609 41.4468C11.3578 41.15 11.3578 40.6735 11.0609 40.3767C10.7485 40.0798 10.272 40.0798 9.97516 40.3767ZM21.1531 41.9545H13.2168C12.795 41.9545 12.4591 42.2904 12.4591 42.7122C12.4591 43.134 12.795 43.4699 13.2168 43.4699H21.1531C21.5749 43.4699 21.9108 43.134 21.9108 42.7122C21.9108 42.2904 21.5749 41.9545 21.1531 41.9545Z" stroke="#D9A441" stroke-width="0.5"/>
<path d="M32.995 6.17888H26.4648L26.2382 5.429C26.043 4.78066 25.4493 4.34323 24.7697 4.34323H22.5513C22.1529 2.42165 20.4657 1 18.4348 1C16.4038 1 14.7166 2.42165 14.3182 4.34323H12.0998C11.4202 4.34323 10.8344 4.78066 10.6313 5.429L10.397 6.17888H3.87455C2.28886 6.17888 1 7.49117 1 9.10811V48.0708C1 49.6877 2.28886 51 3.87455 51H32.995C34.5729 51 35.8617 49.6877 35.8617 48.0708V9.10811C35.8617 7.49117 34.5807 6.17888 32.995 6.17888ZM14.99 5.85862C15.3962 5.85862 15.7321 5.53835 15.7477 5.12436C15.7946 3.66365 16.9741 2.51539 18.4348 2.51539C19.8955 2.51539 21.075 3.66365 21.1219 5.12436C21.1375 5.53054 21.4734 5.85862 21.8796 5.85862H24.7697L25.668 8.81128L11.1859 8.78785L12.0998 5.85862H14.99ZM34.3542 48.063C34.3542 48.8441 33.7449 49.4768 33.0028 49.4768H3.88236C3.13248 49.4768 2.5232 48.8441 2.5232 48.063V9.10811C2.5232 8.32698 3.13248 7.69427 3.88236 7.69427H9.94391L9.74082 8.3426C9.60022 8.81128 9.67833 9.3112 9.97516 9.70177C10.2642 10.1001 10.7172 10.3267 11.2093 10.3267H25.6758C26.1679 10.3267 26.621 10.1001 26.91 9.70177C27.199 9.30339 27.285 8.81128 27.1444 8.3426L26.9413 7.69427H33.0028C33.7527 7.69427 34.3542 8.32698 34.3542 9.10811V48.063Z" stroke="#D9A441" stroke-width="0.5"/>
</g>
</svg>
