<svg width="20" height="17" viewBox="0 0 20 17" fill="none" xmlns="http://www.w3.org/2000/svg">
<path d="M0.729148 16.8093C0.652399 16.8097 0.576113 16.7974 0.503382 16.7729C0.351284 16.7235 0.219667 16.6254 0.128847 16.4938C0.0380276 16.3622 -0.00694503 16.2043 0.000870727 16.0446C0.000870727 15.9354 0.750997 5.36076 11.3547 4.53053V0.728916C11.3546 0.584125 11.3976 0.442583 11.4783 0.322368C11.559 0.202152 11.6737 0.10872 11.8078 0.0540038C11.9418 -0.000712115 12.0892 -0.0142277 12.2309 0.0151832C12.3727 0.044594 12.5025 0.115596 12.6037 0.219122L19.7918 7.56016C19.9253 7.6963 20 7.87933 20 8.06995C20 8.26058 19.9253 8.44361 19.7918 8.57975L12.6037 15.9208C12.5025 16.0243 12.3727 16.0953 12.2309 16.1247C12.0892 16.1541 11.9418 16.1406 11.8078 16.0859C11.6737 16.0312 11.559 15.9378 11.4783 15.8175C11.3976 15.6973 11.3546 15.5558 11.3547 15.411V11.6822C4.27586 11.9517 1.37367 16.416 1.34454 16.4706C1.27884 16.5744 1.18797 16.6599 1.08037 16.7191C0.972778 16.7783 0.851958 16.8093 0.729148 16.8093ZM12.8113 2.5132V5.21146C12.8114 5.40028 12.7382 5.58176 12.6071 5.71763C12.4759 5.8535 12.2972 5.93313 12.1085 5.93974C5.24811 6.191 2.79382 10.7609 1.9126 13.6995C3.73329 12.1265 6.97777 10.2038 12.0393 10.2038H12.0721C12.2652 10.2038 12.4505 10.2805 12.587 10.4171C12.7236 10.5537 12.8004 10.7389 12.8004 10.9321V13.6304L18.2624 8.0736L12.8113 2.5132Z" fill="#D9A441"/>
</svg>
