<svg width="50" height="50" viewBox="0 0 50 50" fill="none" xmlns="http://www.w3.org/2000/svg">
<g id="Vector">
<path d="M50 12.8723H38.2979V0H11.7021V12.8723H0V44.0426H6.59574V50H43.4043V44.0426H50V12.8723ZM13.8298 2.12766H36.1702V41.9149H31.7021V33.4043H18.2979V41.9149H13.8298V2.12766ZM29.5745 41.9149H20.3191V35.5319H29.5745V41.9149ZM2.12766 41.9149V15H11.7021V41.9149H2.12766ZM8.7234 47.8723V44.0426H41.383V47.8723H8.7234ZM47.8723 41.9149H38.2979V15H47.8723V41.9149Z" fill="#D9A441"/>
<path d="M23.9362 15H26.0638V11.9149H29.1489V9.78723H26.0638V6.70213H23.9362V9.78723H20.8511V11.9149H23.9362V15ZM5.85106 19.1489H7.97872V22.4468H5.85106V19.1489ZM5.85106 26.8085H7.97872V30.1064H5.85106V26.8085ZM5.85106 34.4681H7.97872V37.766H5.85106V34.4681ZM42.0213 19.1489H44.1489V22.4468H42.0213V19.1489ZM42.0213 26.8085H44.1489V30.1064H42.0213V26.8085ZM42.0213 34.4681H44.1489V37.766H42.0213V34.4681ZM18.2979 19.1489H20.4255V22.4468H18.2979V19.1489ZM18.2979 26.8085H20.4255V30.1064H18.2979V26.8085ZM23.9362 19.1489H26.0638V22.4468H23.9362V19.1489ZM23.9362 26.8085H26.0638V30.1064H23.9362V26.8085ZM29.5745 19.1489H31.7021V22.4468H29.5745V19.1489ZM29.5745 26.8085H31.7021V30.1064H29.5745V26.8085Z" fill="#D9A441"/>
</g>
</svg>
