<svg width="50" height="47" viewBox="0 0 50 47" fill="none" xmlns="http://www.w3.org/2000/svg">
<path id="Vector" d="M44.979 11.1381H41.211V5.38851C41.211 2.41727 38.7937 0 35.8225 0H5.38851C2.41727 0 0 2.41727 0 5.38851V25.6928C0 28.664 2.41727 31.0813 5.38851 31.0813H8.37732V37.145C8.37732 37.644 8.68853 38.09 9.15688 38.2624C9.29111 38.3117 9.43 38.3356 9.5675 38.3356C9.91006 38.3356 10.244 38.1875 10.4746 37.9161L16.2065 31.176V34.6865C16.2065 37.4552 18.459 39.7077 21.2277 39.7077H32.4217L38.2348 46.3723C38.4654 46.6367 38.7948 46.7803 39.1322 46.7803C39.2722 46.7803 39.4136 46.7555 39.5498 46.7045C40.0145 46.5302 40.3224 46.0861 40.3224 45.5898V39.7077H44.9789C47.7475 39.7077 50 37.4552 50 34.6865V16.1593C50.0002 13.3906 47.7477 11.1381 44.979 11.1381ZM14.8299 29.1196L10.7583 33.9075V29.8909C10.7583 29.2334 10.2252 28.7004 9.5678 28.7004H5.38851C3.73017 28.7003 2.38096 27.3512 2.38096 25.6928V5.38851C2.38096 3.73007 3.73017 2.38096 5.38851 2.38096H35.8224C37.4807 2.38096 38.8299 3.73017 38.8299 5.38851V25.6928C38.8299 27.3512 37.4807 28.7003 35.8224 28.7003H15.7369C15.3877 28.7003 15.0562 28.8536 14.8299 29.1196ZM47.6192 34.6866C47.6192 36.1425 46.4348 37.3268 44.979 37.3268H39.1321C38.4747 37.3268 37.9416 37.8599 37.9416 38.5173V42.4139L33.8603 37.7348C33.6342 37.4755 33.307 37.3268 32.9631 37.3268H21.2279C19.7721 37.3268 18.5877 36.1425 18.5877 34.6866V31.0813H35.8225C38.7937 31.0813 41.211 28.664 41.211 25.6928V13.5191H44.979C46.4348 13.5191 47.6192 14.7034 47.6192 16.1593V34.6866ZM22.4957 15.5406C22.4957 16.5846 21.6494 17.4309 20.6055 17.4309C19.5616 17.4309 18.7154 16.5846 18.7154 15.5406C18.7154 14.4968 19.5616 13.6505 20.6055 13.6505C21.6494 13.6505 22.4957 14.4967 22.4957 15.5406ZM12.338 15.5406C12.338 16.5846 11.4917 17.4309 10.4479 17.4309C9.40391 17.4309 8.55767 16.5846 8.55767 15.5406C8.55767 14.4968 9.40391 13.6505 10.4479 13.6505C11.4917 13.6505 12.338 14.4967 12.338 15.5406ZM32.6533 15.5406C32.6533 16.5846 31.807 17.4309 30.763 17.4309C29.7191 17.4309 28.8728 16.5846 28.8728 15.5406C28.8728 14.4968 29.7191 13.6505 30.763 13.6505C31.807 13.6505 32.6533 14.4967 32.6533 15.5406Z" fill="#D9A441"/>
</svg>
