<svg width="47" height="50" viewBox="0 0 47 50" fill="none" xmlns="http://www.w3.org/2000/svg">
<path id="Vector" d="M38.5714 31.8965L27.5973 29.7413V28.3534C29.2213 27.6034 30.6254 26.4487 31.6749 25H33.6318C34.3177 25 34.9755 24.7275 35.4605 24.2425C35.9455 23.7575 36.218 23.0997 36.218 22.4138V20.6896C36.9039 20.6896 37.5617 20.4172 38.0467 19.9321C38.5317 19.4471 38.8042 18.7893 38.8042 18.1034V13.7931C38.802 13.2445 38.6254 12.7108 38.3 12.2691C37.9746 11.8275 37.5172 11.5008 36.9938 11.3362C37.2007 9.60896 36.9688 7.85745 36.3193 6.24364C35.6699 4.62984 34.624 3.20587 33.2783 2.10345C31.4938 0.689654 29.0456 1.24138 27.8904 1.56034C27.2611 0.913792 25.9163 0 23.2869 0C20.0283 0 15.5283 0.370689 12.8042 2.12931C7.6749 5.40516 6.90766 14.6552 6.90766 19.8276V27.5862C6.907 27.6996 6.92875 27.8121 6.97165 27.9171C7.01455 28.0222 7.07776 28.1177 7.15766 28.1982C7.34731 28.3793 8.45938 29.3103 12.0801 29.3103C12.9956 29.3623 13.9089 29.176 14.7308 28.7696C15.5528 28.3631 16.2553 27.7504 16.7697 26.9913C17.4453 27.5361 18.1868 27.9938 18.9766 28.3534V29.7413L8.00249 31.8965C6.45266 32.1948 5.03068 32.9587 3.92629 34.0862C2.82189 35.2137 2.08762 36.6512 1.82146 38.2068L0.0111177 48.9999C-0.00902393 49.1241 -0.00173524 49.2512 0.0324722 49.3723C0.0666795 49.4934 0.126976 49.6055 0.209129 49.7008C0.291282 49.7961 0.393299 49.8723 0.508018 49.9239C0.622737 49.9756 0.747376 50.0015 0.873185 49.9999H45.7007C45.8265 50.0015 45.9512 49.9756 46.0659 49.9239C46.1806 49.8723 46.2826 49.7961 46.3648 49.7008C46.4469 49.6055 46.5072 49.4934 46.5414 49.3723C46.5756 49.2512 46.5829 49.1241 46.5628 48.9999L44.7524 38.2068C44.4863 36.6512 43.752 35.2137 42.6476 34.0862C41.5432 32.9587 40.1212 32.1948 38.5714 31.8965ZM23.2869 27.5862C21.0006 27.5862 18.8079 26.6779 17.1912 25.0612C15.5745 23.4445 14.6663 21.2518 14.6663 18.9655V14.6552C17.0568 14.6041 19.4363 14.3153 21.7697 13.7931C23.5543 13.3403 25.1834 12.414 26.4852 11.1121C27.83 13.3103 30.6318 14.3707 31.9076 14.7586V18.9655C31.9049 20.4795 31.5035 21.9662 30.7438 23.2758H24.7697C24.6193 23.0152 24.4032 22.7986 24.1431 22.6473C23.883 22.4961 23.5878 22.4156 23.2869 22.4138C22.8297 22.4138 22.3911 22.5954 22.0678 22.9187C21.7445 23.2421 21.5628 23.6806 21.5628 24.1379C21.5628 24.5952 21.7445 25.0337 22.0678 25.357C22.3911 25.6804 22.8297 25.862 23.2869 25.862C23.5878 25.8602 23.883 25.7797 24.1431 25.6285C24.4032 25.4772 24.6193 25.2605 24.7697 25H29.4335C28.632 25.8176 27.6757 26.4674 26.6204 26.9115C25.5651 27.3555 24.4319 27.5849 23.2869 27.5862ZM11.218 15.5172C11.2191 15.1025 11.3199 14.6941 11.512 14.3265C11.704 13.9589 11.9816 13.6429 12.3214 13.4052L12.9421 13.2241V17.9482C12.4391 17.7704 12.0033 17.4413 11.6947 17.0061C11.386 16.5708 11.2195 16.0508 11.218 15.5172ZM34.4938 22.4138C34.4938 22.6424 34.403 22.8617 34.2413 23.0233C34.0797 23.185 33.8604 23.2758 33.6318 23.2758H32.6749C33.0565 22.4535 33.3262 21.5837 33.4766 20.6896H34.4938V22.4138ZM37.08 18.1034C37.08 18.3321 36.9892 18.5513 36.8275 18.713C36.6659 18.8747 36.4466 18.9655 36.218 18.9655H33.6318V12.931H36.218C36.4466 12.931 36.6659 13.0218 36.8275 13.1835C36.9892 13.3452 37.08 13.5644 37.08 13.7931V18.1034ZM12.0801 27.5862C10.9103 27.6488 9.7394 27.4849 8.63179 27.1034V19.8276C8.63179 15.9224 9.13179 6.51723 13.7352 3.5862C16.1404 2.0431 20.2611 1.72414 23.2869 1.72414C26.08 1.72414 26.8042 2.93965 26.83 2.97413C26.9286 3.16875 27.0972 3.31877 27.302 3.39395C27.5068 3.46914 27.7324 3.46391 27.9335 3.37931C27.9335 3.37931 30.6662 2.23276 32.2438 3.45689C33.3702 4.38466 34.2427 5.58318 34.7795 6.94018C35.3162 8.29718 35.4997 9.76822 35.3128 11.2155H32.7697C32.5411 11.2155 32.3218 11.3063 32.1601 11.468C31.9984 11.6297 31.9076 11.8489 31.9076 12.0776V12.9396C30.4938 12.4483 28.08 11.3276 27.5973 9.30171C27.5562 9.1403 27.4693 8.99423 27.347 8.88118C27.2247 8.76812 27.0723 8.69291 26.9081 8.66464C26.744 8.63637 26.5752 8.65626 26.4221 8.72189C26.269 8.78752 26.1382 8.89609 26.0456 9.03447C24.867 10.5434 23.2153 11.6121 21.3559 12.0689C19.1589 12.5703 16.9186 12.8589 14.6663 12.931V12.0689C14.6663 11.8403 14.5754 11.621 14.4138 11.4594C14.2521 11.2977 14.0328 11.2069 13.8042 11.2069C12.7389 11.2163 11.7148 11.6198 10.9295 12.3397C10.1442 13.0596 9.65329 14.0448 9.55153 15.1053C9.44977 16.1658 9.74434 17.2264 10.3784 18.0825C11.0125 18.9386 11.9412 19.5296 12.9852 19.7414C13.1462 21.973 14.0298 24.0914 15.5025 25.7758C15.1691 26.3771 14.6681 26.8684 14.0604 27.1898C13.4527 27.5113 12.7647 27.649 12.0801 27.5862ZM20.0025 31.2931C20.2017 31.2545 20.381 31.147 20.5087 30.9893C20.6364 30.8316 20.7044 30.6339 20.7007 30.431V28.9741C22.3957 29.4225 24.1782 29.4225 25.8731 28.9741V30.4482C25.8695 30.6511 25.9375 30.8488 26.0652 31.0065C26.1929 31.1642 26.3722 31.2718 26.5714 31.3103L27.9421 31.5775L23.1318 34.9741L18.5628 31.5948L20.0025 31.2931ZM29.0111 32.9224L26.5025 48.2758H20.0714L17.5714 32.9827L22.6059 36.7155C22.7527 36.8214 22.9292 36.8784 23.1102 36.8784C23.2913 36.8784 23.4677 36.8214 23.6145 36.7155L29.0111 32.9224ZM3.51973 38.4913C3.72266 37.2768 4.29229 36.1534 5.15215 35.272C6.01201 34.3905 7.12093 33.7933 8.33007 33.5603L15.6835 32.1293L18.3301 48.2758H1.89043L3.51973 38.4913ZM28.2438 48.2758L30.8904 32.1293L38.2438 33.5603C39.453 33.7933 40.5619 34.3905 41.4217 35.272C42.2816 36.1534 42.8512 37.2768 43.0542 38.4913L44.6835 48.2758H28.2438Z" fill="#D9A441"/>
</svg>
