<svg width="18" height="20" viewBox="0 0 18 20" fill="none" xmlns="http://www.w3.org/2000/svg">
<rect width="18" height="20" fill="#F5F5F5"/>
<g id="Services Detail" clip-path="url(#clip0_0_1)">
<rect width="1920" height="3071" transform="translate(-534 -1430)" fill="#F2F2F2"/>
<g id="Section Service Detail">
<rect id="Background" x="-534" y="-848" width="1920" height="1936" fill="#F2F2F2"/>
<g id="Service Detail">
<path id="Vector" d="M1.25 20H16.25C16.5815 20 16.8995 19.8683 17.1339 19.6339C17.3683 19.3995 17.5 19.0815 17.5 18.75V1.25C17.5 0.918479 17.3683 0.600537 17.1339 0.366117C16.8995 0.131696 16.5815 0 16.25 0L1.25 0C0.918479 0 0.600537 0.131696 0.366116 0.366117C0.131696 0.600537 0 0.918479 0 1.25V18.75C0 19.0815 0.131696 19.3995 0.366116 19.6339C0.600537 19.8683 0.918479 20 1.25 20ZM1.25 1.25H16.25V18.75H1.25V1.25ZM13.125 3.75H8.125C7.95924 3.75 7.80027 3.81585 7.68306 3.93306C7.56585 4.05027 7.5 4.20924 7.5 4.375C7.5 4.54076 7.56585 4.69973 7.68306 4.81694C7.80027 4.93415 7.95924 5 8.125 5H13.125C13.2908 5 13.4497 4.93415 13.5669 4.81694C13.6842 4.69973 13.75 4.54076 13.75 4.375C13.75 4.20924 13.6842 4.05027 13.5669 3.93306C13.4497 3.81585 13.2908 3.75 13.125 3.75ZM13.125 7.5H4.375C4.20924 7.5 4.05027 7.56585 3.93306 7.68306C3.81585 7.80027 3.75 7.95924 3.75 8.125C3.75 8.29076 3.81585 8.44973 3.93306 8.56694C4.05027 8.68415 4.20924 8.75 4.375 8.75H13.125C13.2908 8.75 13.4497 8.68415 13.5669 8.56694C13.6842 8.44973 13.75 8.29076 13.75 8.125C13.75 7.95924 13.6842 7.80027 13.5669 7.68306C13.4497 7.56585 13.2908 7.5 13.125 7.5ZM13.125 11.25H4.375C4.20924 11.25 4.05027 11.3158 3.93306 11.4331C3.81585 11.5503 3.75 11.7092 3.75 11.875C3.75 12.0408 3.81585 12.1997 3.93306 12.3169C4.05027 12.4342 4.20924 12.5 4.375 12.5H13.125C13.2908 12.5 13.4497 12.4342 13.5669 12.3169C13.6842 12.1997 13.75 12.0408 13.75 11.875C13.75 11.7092 13.6842 11.5503 13.5669 11.4331C13.4497 11.3158 13.2908 11.25 13.125 11.25ZM13.125 15H4.375C4.20924 15 4.05027 15.0658 3.93306 15.1831C3.81585 15.3003 3.75 15.4592 3.75 15.625C3.75 15.7908 3.81585 15.9497 3.93306 16.0669C4.05027 16.1842 4.20924 16.25 4.375 16.25H13.125C13.2908 16.25 13.4497 16.1842 13.5669 16.0669C13.6842 15.9497 13.75 15.7908 13.75 15.625C13.75 15.4592 13.6842 15.3003 13.5669 15.1831C13.4497 15.0658 13.2908 15 13.125 15Z" fill="#D9A441"/>
</g>
</g>
</g>
<defs>
<clipPath id="clip0_0_1">
<rect width="1920" height="3071" fill="white" transform="translate(-534 -1430)"/>
</clipPath>
</defs>
</svg>
