<svg width="35" height="24" viewBox="0 0 35 24" fill="none" xmlns="http://www.w3.org/2000/svg">
<path id="Vector" d="M34.125 0H0.875C0.39375 0 0 0.39375 0 0.875V22.75C0 23.2313 0.39375 23.625 0.875 23.625H34.125C34.6063 23.625 35 23.2313 35 22.75V0.875C35 0.39375 34.6063 0 34.125 0ZM32.025 1.75L17.5 16.275L2.975 1.75H32.025ZM1.75 2.975L10.5875 11.8125L1.75 20.65V2.975ZM3.01875 21.875L11.8125 13.0813L16.8875 18.1562C17.2375 18.5063 17.7625 18.5063 18.1125 18.1562L23.1875 13.0813L31.9812 21.875H3.01875ZM33.25 20.65L24.4125 11.8125L33.25 2.975V20.65Z" fill="#D9A441"/>
</svg>
