<svg width="35" height="28" viewBox="0 0 35 28" fill="none" xmlns="http://www.w3.org/2000/svg">
<g id="Vector">
<path d="M20.8336 6.66715C20.8336 4.82535 19.3418 3.33357 17.5 3.33357C15.6582 3.33357 14.1664 4.82535 14.1664 6.66715C14.1664 8.50895 15.6582 10.0007 17.5 10.0007C19.3418 10.0007 20.8336 8.50895 20.8336 6.66715ZM15.8332 6.66715C15.8332 5.75041 16.5833 5.00036 17.5 5.00036C18.4167 5.00036 19.1668 5.75041 19.1668 6.66715C19.1668 7.58388 18.4167 8.33393 17.5 8.33393C16.5833 8.33393 15.8332 7.58388 15.8332 6.66715Z" fill="#D9A441"/>
<path d="M0.832136 27.502H34.1679C34.4596 27.502 34.7262 27.352 34.8762 27.1019C35.0263 26.8519 35.0429 26.5519 34.9096 26.2936L28.2424 12.9593C28.1008 12.6759 27.8174 12.5009 27.5007 12.5009H22.3087C23.5421 9.7757 24.1671 7.8089 24.1671 6.66715C24.1671 2.99188 21.1753 0 17.5 0C13.8247 0 10.8329 2.99188 10.8329 6.66715C10.8329 7.8089 11.4579 9.7757 12.6913 12.5009H7.49928C7.18259 12.5009 6.89924 12.6759 6.75756 12.9593L0.0904155 26.2936C-0.0429274 26.5519 -0.0262593 26.8603 0.123751 27.1019C0.273762 27.352 0.540448 27.502 0.832136 27.502ZM12.4996 6.66715C12.4996 3.90861 14.7415 1.66679 17.5 1.66679C20.2585 1.66679 22.5004 3.90861 22.5004 6.66715C22.5004 8.57562 19.9835 13.801 17.5 18.3013C15.0165 13.801 12.4996 8.57562 12.4996 6.66715ZM8.01599 14.1677H13.4747C15.0332 17.3846 16.7083 20.2931 16.7833 20.4181C17.0833 20.9348 17.9334 20.9348 18.2251 20.4181C18.3001 20.2931 19.9752 17.3846 21.5336 14.1677H26.9923L32.8261 25.8352H2.18223L8.01599 14.1677Z" fill="#D9A441"/>
</g>
</svg>
