<svg width="15" height="20" viewBox="0 0 15 20" fill="none" xmlns="http://www.w3.org/2000/svg">
<g id="Vector">
<path d="M7.5 19.0909C7.65379 19.09 7.80277 19.0372 7.92273 18.9409C8.18182 18.7091 15 13.2136 15 7.5C15 5.51088 14.2098 3.60322 12.8033 2.1967C11.3968 0.790177 9.48912 0 7.5 0C5.51088 0 3.60322 0.790177 2.1967 2.1967C0.790177 3.60322 0 5.51088 0 7.5C0 13.2136 6.81818 18.7091 7.07727 18.9409C7.19723 19.0372 7.34621 19.09 7.5 19.0909ZM1.36364 7.5C1.36364 5.87254 2.01014 4.31173 3.16094 3.16094C4.31173 2.01014 5.87254 1.36364 7.5 1.36364C9.12747 1.36364 10.6883 2.01014 11.8391 3.16094C12.9899 4.31173 13.6364 5.87254 13.6364 7.5C13.6364 11.7955 8.95227 16.2341 7.5 17.5159C6.04773 16.2341 1.36364 11.7955 1.36364 7.5Z" fill="#D9A441"/>
<path d="M10.9091 7.5C10.9091 6.82575 10.7092 6.16663 10.3346 5.60601C9.95996 5.04539 9.42753 4.60844 8.8046 4.35041C8.18167 4.09238 7.49622 4.02487 6.83492 4.15641C6.17362 4.28795 5.56618 4.61264 5.08941 5.08941C4.61264 5.56618 4.28795 6.17362 4.15641 6.83492C4.02487 7.49622 4.09238 8.18167 4.35041 8.8046C4.60844 9.42753 5.04539 9.95996 5.60601 10.3346C6.16663 10.7092 6.82575 10.9091 7.5 10.9091C8.40415 10.9091 9.27126 10.5499 9.91059 9.91059C10.5499 9.27126 10.9091 8.40415 10.9091 7.5ZM5.45455 7.5C5.45455 7.09545 5.57451 6.69998 5.79927 6.36361C6.02402 6.02723 6.34348 5.76506 6.71724 5.61025C7.091 5.45543 7.50227 5.41492 7.89905 5.49385C8.29583 5.57277 8.66029 5.76758 8.94635 6.05365C9.23242 6.33971 9.42723 6.70417 9.50615 7.10095C9.58508 7.49773 9.54457 7.909 9.38975 8.28276C9.23494 8.65652 8.97277 8.97598 8.63639 9.20073C8.30002 9.42549 7.90455 9.54545 7.5 9.54545C6.95751 9.54545 6.43724 9.32995 6.05365 8.94635C5.67005 8.56276 5.45455 8.04249 5.45455 7.5Z" fill="#D9A441"/>
</g>
</svg>
