<svg width="20" height="18" viewBox="0 0 20 18" fill="none" xmlns="http://www.w3.org/2000/svg">
<path id="Vector" d="M6.56646 13.7771C5.98087 13.5663 5.32891 13.6561 4.8253 14.0269C4.50517 14.2612 3.95471 14.6047 3.28714 14.9131C3.50576 14.3393 3.67363 13.6912 3.72828 12.9846C3.76732 12.481 3.59945 11.9813 3.26762 11.5987C2.35799 10.5719 1.8739 9.36951 1.8739 8.12024C1.8739 5.01659 5.1259 1.8739 9.99414 1.8739C14.8624 1.8739 18.1144 5.01659 18.1144 8.12024C18.1144 11.2239 14.8624 14.3666 9.99414 14.3666C8.76049 14.3666 7.60102 14.1519 6.56646 13.7771ZM1.02674 15.2957C0.964279 15.4011 0.897911 15.5065 0.82764 15.6119L0.815928 15.6315C0.753465 15.7213 0.691001 15.811 0.628538 15.9008C0.491899 16.0843 0.343549 16.2639 0.18739 16.4279C0.00780794 16.6075 -0.0429436 16.8729 0.0546555 17.1072C0.152255 17.3414 0.378684 17.4937 0.632442 17.4937C0.831544 17.4937 1.03065 17.4819 1.22975 17.4624L1.25708 17.4585C1.42885 17.439 1.60062 17.4156 1.7724 17.3843C1.80363 17.3804 1.83486 17.3726 1.86609 17.3648C2.561 17.2282 3.22858 16.9939 3.82198 16.7363C4.71599 16.3459 5.47726 15.8813 5.94183 15.5417C7.18329 15.9906 8.55749 16.2405 10.0059 16.2405C15.5261 16.2405 20 12.6059 20 8.12024C20 3.63459 15.5143 0 9.99414 0C4.47394 0 0 3.63459 0 8.12024C0 9.88093 0.691001 11.5089 1.86219 12.8401C1.78801 13.7966 1.41714 14.6477 1.02674 15.2957ZM5.62171 9.36951C5.95303 9.36951 6.27079 9.23789 6.50507 9.00361C6.73936 8.76933 6.87097 8.45157 6.87097 8.12024C6.87097 7.78892 6.73936 7.47116 6.50507 7.23688C6.27079 7.00259 5.95303 6.87097 5.62171 6.87097C5.29038 6.87097 4.97262 7.00259 4.73834 7.23688C4.50406 7.47116 4.37244 7.78892 4.37244 8.12024C4.37244 8.45157 4.50406 8.76933 4.73834 9.00361C4.97262 9.23789 5.29038 9.36951 5.62171 9.36951ZM11.2434 8.12024C11.2434 7.78892 11.1118 7.47116 10.8775 7.23688C10.6432 7.00259 10.3255 6.87097 9.99414 6.87097C9.66282 6.87097 9.34506 7.00259 9.11078 7.23688C8.8765 7.47116 8.74488 7.78892 8.74488 8.12024C8.74488 8.45157 8.8765 8.76933 9.11078 9.00361C9.34506 9.23789 9.66282 9.36951 9.99414 9.36951C10.3255 9.36951 10.6432 9.23789 10.8775 9.00361C11.1118 8.76933 11.2434 8.45157 11.2434 8.12024ZM14.3666 9.36951C14.6979 9.36951 15.0157 9.23789 15.2499 9.00361C15.4842 8.76933 15.6159 8.45157 15.6159 8.12024C15.6159 7.78892 15.4842 7.47116 15.2499 7.23688C15.0157 7.00259 14.6979 6.87097 14.3666 6.87097C14.0353 6.87097 13.7175 7.00259 13.4832 7.23688C13.2489 7.47116 13.1173 7.78892 13.1173 8.12024C13.1173 8.45157 13.2489 8.76933 13.4832 9.00361C13.7175 9.23789 14.0353 9.36951 14.3666 9.36951Z" fill="#D9A441"/>
</svg>
