<svg width="50" height="50" viewBox="0 0 50 50" fill="none" xmlns="http://www.w3.org/2000/svg">
<g id="Vector" opacity="0.981">
<path fill-rule="evenodd" clip-rule="evenodd" d="M22.7539 0C24.2513 0 25.7487 0 27.2461 0C36.9894 1.26451 43.9393 6.34264 48.0957 15.2344C49.0855 17.664 49.7203 20.1705 50 22.7539C50 24.2513 50 25.7487 50 27.2461C48.7355 36.9894 43.6573 43.9393 34.7656 48.0957C32.3361 49.0855 29.8296 49.7203 27.2461 50C25.7487 50 24.2513 50 22.7539 50C13.0104 48.7353 6.0606 43.6571 1.9043 34.7656C0.914445 32.336 0.27968 29.8295 0 27.2461C0 25.7487 0 24.2513 0 22.7539C1.26451 13.0106 6.34264 6.06076 15.2344 1.9043C17.664 0.914445 20.1705 0.27968 22.7539 0ZM24.9023 3.125C34.2858 3.55767 41.0079 7.98476 45.0684 16.4062C47.8415 23.455 47.2881 30.2259 43.4082 36.7188C39.0122 43.1905 32.8761 46.576 25 46.875C17.1239 46.576 10.9878 43.1905 6.5918 36.7188C2.88929 30.6004 2.20569 24.1551 4.54102 17.3828C6.82816 11.6451 10.7832 7.49471 16.4062 4.93164C19.1386 3.79614 21.9706 3.19393 24.9023 3.125Z" fill="#D9A441"/>
<path fill-rule="evenodd" clip-rule="evenodd" d="M23.4375 9.375C24.4792 9.375 25.5208 9.375 26.5625 9.375C26.5462 14.3556 26.5625 19.336 26.6113 24.3164C29.5898 27.2949 32.5684 30.2734 35.5469 33.252C34.7819 34.0169 34.0169 34.7819 33.252 35.5469C29.9968 32.2917 26.7415 29.0364 23.4863 25.7812C23.4375 20.3126 23.4212 14.8438 23.4375 9.375Z" fill="#D9A441"/>
</g>
</svg>
