<svg width="61" height="45" viewBox="0 0 61 45" fill="none" xmlns="http://www.w3.org/2000/svg">
<g id="Vector">
<path d="M12.5677 0.112107C9.82758 0.411028 6.90065 1.70635 4.84557 3.53724C1.15889 6.82537 -0.584817 11.5707 0.17494 16.2538C0.52368 18.4459 1.38308 20.5633 2.5663 22.2696C3.43816 23.5026 5.38114 25.346 6.6391 26.1182C8.40771 27.2142 10.5873 27.974 12.5552 28.1982L13.3524 28.2854L13.2776 29.6056C13.1282 32.1838 12.2065 34.6997 10.2386 37.8508C9.82759 38.5359 9.57848 39.059 9.57848 39.2956C9.57848 39.6194 9.93968 40.0429 12.1193 42.2475C13.5143 43.6549 14.8096 44.863 14.9964 44.9377C15.5444 45.1495 16.0177 44.8256 17.6743 43.1193C23.0175 37.6017 26.617 30.3778 27.8874 22.6059C28.4977 18.8445 28.4728 14.0244 27.8251 11.359C26.0316 3.94826 19.7792 -0.660104 12.5677 0.112107ZM16.6405 2.29174C20.6759 3.10131 24.0886 6.27735 25.5085 10.4996C26.1437 12.3928 26.3056 13.6507 26.3056 16.7271C26.318 19.6665 26.1935 21.0366 25.6953 23.5774C24.6989 28.5843 22.6314 33.3546 19.555 37.7138C18.6831 38.9469 16.7899 41.1888 15.8807 42.0731L15.3078 42.6336L11.8204 39.1462L12.2688 38.3989C14.548 34.6374 15.7562 30.0789 15.1708 27.3886C14.984 26.4919 14.7971 26.3798 13.3274 26.2552C11.8702 26.1182 10.7368 25.8566 9.54112 25.3834C4.33492 23.266 1.20871 17.6488 2.16774 12.1437C3.10187 6.81291 7.34903 2.76503 12.7172 2.10491C13.8132 1.96791 15.4199 2.04264 16.6405 2.29174Z" fill="#D9A441"/>
<path d="M44.3791 0.112095C41.2156 0.435926 38.0022 2.06753 35.6606 4.53363C29.9064 10.5992 30.7658 20.3889 37.4915 25.4332C39.3971 26.8655 41.4148 27.7124 43.7813 28.0861L45.1264 28.2978V29.1946C45.1264 31.4489 44.1799 34.3261 42.5732 37.0163C41.4273 38.9095 41.3899 38.9967 41.3899 39.3205C41.3899 39.5572 42.0127 40.2671 43.9806 42.235C45.4005 43.6673 46.6833 44.8879 46.8452 44.9502C47.3434 45.1495 47.8666 44.7883 49.4234 43.1816C51.3041 41.2386 52.2383 40.1052 53.6581 37.9629C57.4071 32.3332 59.5245 26.2054 60.0849 19.4049C60.2593 17.2876 60.1597 14.1115 59.8732 12.4052C59.101 7.78439 56.4107 3.83615 52.6244 1.75616C50.8558 0.772212 49.3612 0.323831 47.2563 0.112095C45.8488 -0.0373651 45.8862 -0.0373651 44.3791 0.112095ZM48.4893 2.30418C50.1583 2.62801 52.0514 3.56214 53.5087 4.77028C55.352 6.28979 56.9961 8.96762 57.6437 11.4711C58.416 14.4977 58.3412 19.6789 57.4694 23.9136C56.0993 30.5024 53.0603 36.2815 48.1157 41.6745L47.1815 42.6958L45.4129 40.9272L43.6568 39.1461L44.2048 38.212C45.5126 36.0199 46.5214 33.4667 46.9324 31.2497C47.1566 30.0415 47.1815 28.0985 46.9822 27.3139C46.7705 26.4794 46.5588 26.3548 45.1514 26.2427C42.0002 26.0061 39.447 24.8104 37.2424 22.5561C33.0202 18.2342 32.6839 11.3465 36.4702 6.61362C37.8029 4.94465 39.3224 3.81124 41.3899 2.93939C43.6194 1.9928 45.9236 1.79352 48.4893 2.30418Z" fill="#D9A441"/>
</g>
</svg>
