<svg width="15" height="13" viewBox="0 0 15 13" fill="none" xmlns="http://www.w3.org/2000/svg">
<path id="Vector" d="M14.6861 7.18818C15.1046 6.76963 15.1046 6.0899 14.6861 5.67135L9.32865 0.313912C8.9101 -0.104638 8.23037 -0.104638 7.81182 0.313912C7.39327 0.732462 7.39327 1.41219 7.81182 1.83074L11.3444 5.35995L1.07149 5.35995C0.478821 5.35995 -2.55221e-07 5.83877 -2.81127e-07 6.43144C-3.07034e-07 7.02411 0.47882 7.50293 1.07149 7.50293L11.3444 7.50293L7.81517 11.0321C7.39662 11.4507 7.39662 12.1304 7.81517 12.549C8.23372 12.9675 8.91344 12.9675 9.33199 12.549L14.6894 7.19153L14.6861 7.18818Z" fill="#D9A441"/>
</svg>
