<svg width="52" height="48" viewBox="0 0 52 48" fill="none" xmlns="http://www.w3.org/2000/svg">
<g id="Vector">
<path d="M26 14.2813C27.3134 14.2813 28.5973 13.8918 29.6893 13.1621C30.7814 12.4324 31.6325 11.3953 32.1351 10.1819C32.6378 8.96847 32.7693 7.63326 32.513 6.34511C32.2568 5.05695 31.6243 3.87371 30.6956 2.945C29.7669 2.01629 28.5837 1.38383 27.2955 1.1276C26.0074 0.871371 24.6722 1.00288 23.4587 1.50549C22.2453 2.0081 21.2082 2.85925 20.4785 3.95129C19.7488 5.04334 19.3594 6.32724 19.3594 7.64063C19.3593 8.51272 19.531 9.37628 19.8647 10.182C20.1983 10.9877 20.6875 11.7198 21.3041 12.3365C21.9208 12.9531 22.6529 13.4423 23.4586 13.776C24.2643 14.1097 25.1279 14.2814 26 14.2813ZM26 2.5625C27.0044 2.5625 27.9862 2.86033 28.8213 3.41832C29.6563 3.97631 30.3072 4.76941 30.6916 5.69731C31.0759 6.62522 31.1765 7.64626 30.9805 8.63132C30.7846 9.61638 30.301 10.5212 29.5908 11.2314C28.8806 11.9416 27.9758 12.4252 26.9907 12.6212C26.0056 12.8171 24.9846 12.7166 24.0567 12.3322C23.1288 11.9479 22.3357 11.297 21.7777 10.4619C21.2197 9.62679 20.9219 8.64499 20.9219 7.64063C20.9234 6.2943 21.4589 5.00356 22.4109 4.05156C23.3629 3.09957 24.6537 2.56405 26 2.5625ZM50.4516 25.1484L43.6473 19.3426C43.4202 19.1489 43.1423 19.0242 42.8466 18.9835C42.5509 18.9427 42.2497 18.9875 41.9787 19.1125C41.7076 19.2376 41.478 19.4376 41.3171 19.6891C41.1562 19.9405 41.0707 20.2327 41.0707 20.5313V23.416C35.0391 24.2031 29.9531 27.1504 26.5723 31.75L26.5664 31.7559C26.5285 31.8027 26.3113 32.0746 25.993 32.5535C22.6277 27.4922 17.3055 24.2488 10.9293 23.416V20.5313C10.9293 20.2327 10.8438 19.9405 10.6829 19.6891C10.522 19.4376 10.2924 19.2376 10.0213 19.1125C9.75029 18.9875 9.44909 18.9427 9.15338 18.9835C8.85768 19.0242 8.57983 19.1489 8.35273 19.3426L1.54805 25.1484C1.37617 25.2952 1.23817 25.4774 1.14355 25.6826C1.04894 25.8878 0.99996 26.1111 1 26.3371V26.7285C1.00001 26.9545 1.04905 27.1778 1.14373 27.3831C1.23842 27.5883 1.37649 27.7705 1.54844 27.9172L8.35273 33.7231C8.57983 33.9168 8.85768 34.0414 9.15338 34.0822C9.44909 34.1229 9.75029 34.0782 10.0213 33.9531C10.2924 33.8281 10.522 33.628 10.6829 33.3766C10.8438 33.1251 10.9293 32.8329 10.9293 32.5344V30.1449C17.9168 31.5211 22.0312 37.1539 22.0312 45.5313C22.0312 45.6836 22.0945 46.1941 22.0941 46.3098C22.0934 46.5168 22.1749 46.7157 22.3208 46.8627C22.4666 47.0097 22.6648 47.0928 22.8719 47.0938H28.407C28.8214 47.0938 29.2189 46.9291 29.5119 46.6361C29.8049 46.3431 29.9695 45.9457 29.9695 45.5313C29.9695 37.1539 34.0828 31.5211 41.0707 30.1449V32.5344C41.0707 32.8329 41.1562 33.1251 41.3171 33.3766C41.478 33.628 41.7076 33.8281 41.9787 33.9531C42.2497 34.0782 42.5509 34.1229 42.8466 34.0822C43.1423 34.0414 43.4202 33.9168 43.6473 33.7231L50.452 27.9172C50.6238 27.7705 50.7618 27.5882 50.8564 27.383C50.9511 27.1778 51 26.9545 51 26.7285V26.3371C51 26.1111 50.951 25.8878 50.8563 25.6826C50.7616 25.4774 50.6235 25.2951 50.4516 25.1484ZM9.36719 28.3438V32.5344L2.5625 26.7285V26.3371L9.36719 20.5313V24.8281C15.9797 25.3023 21.7219 28.5664 25.0898 34.0652C24.1235 35.8755 23.3866 37.7992 22.8961 39.7918C21.0574 32.7676 15.7609 28.9414 9.36719 28.3438ZM49.4375 26.7285L42.6328 32.5344V28.3438C34.6719 29.0875 28.407 34.832 28.407 45.5313H23.6707C23.7764 41.6089 24.8287 37.7702 26.7379 34.3422C30.0805 28.6742 35.9086 25.3102 42.6332 24.8281V20.5313L49.4375 26.3371V26.7285Z" fill="#D9A441"/>
<path d="M25.6594 26.0242C25.5256 26.0058 25.3895 26.0183 25.2613 26.0607C25.1331 26.1031 25.0163 26.1742 24.9199 26.2687C24.8235 26.3632 24.75 26.4785 24.705 26.6058C24.6601 26.7331 24.6449 26.869 24.6605 27.0031C24.6605 27.6461 25.0238 27.9531 25.6594 27.9531C25.7902 27.9732 25.924 27.9628 26.0502 27.9227C26.1763 27.8826 26.2915 27.8139 26.3868 27.722C26.482 27.63 26.5548 27.5173 26.5993 27.3926C26.6438 27.2679 26.6589 27.1346 26.6434 27.0031C26.6607 26.87 26.6472 26.7347 26.6038 26.6077C26.5604 26.4806 26.4883 26.3653 26.3932 26.2706C26.298 26.176 26.1823 26.1045 26.055 26.0617C25.9278 26.019 25.7924 26.0062 25.6594 26.0242ZM29.125 20.3543C29.125 18.7176 27.9598 17.7969 25.9621 17.7969C24.0246 17.7969 22.875 18.7906 22.875 20.4563C22.8831 20.6716 22.9743 20.8754 23.1295 21.0248C23.2847 21.1743 23.4918 21.2578 23.7072 21.2578C23.9227 21.2578 24.1298 21.1743 24.285 21.0248C24.4402 20.8754 24.5314 20.6716 24.5395 20.4563C24.5395 19.6379 25.1145 19.2289 25.9621 19.2289C26.9309 19.2289 27.4906 19.6379 27.4906 20.3539C27.4906 21.9031 24.5547 22.0203 24.5547 23.8617C24.5556 24.0965 24.606 24.3284 24.7024 24.5424C24.7988 24.7564 24.9392 24.9477 25.1145 25.1039C25.1926 25.1799 25.285 25.2396 25.3864 25.2796C25.4878 25.3197 25.5961 25.3392 25.7051 25.3371C25.9177 25.3394 26.1226 25.2579 26.2756 25.1103C26.4285 24.9626 26.5171 24.7606 26.5223 24.548C26.5233 24.3914 26.4757 24.2382 26.3859 24.1098C26.2968 24.0136 26.2433 23.8898 26.2344 23.759C26.2344 22.8824 29.125 22.707 29.125 20.3543ZM15.0625 19.3965C15.0625 16.1402 17.8598 14.2543 20.7566 13.9422C20.2768 13.539 19.8443 13.0826 19.4676 12.5816C16.2723 13.3398 13.5 15.7695 13.5 19.3965V22.2902C14.0297 22.4113 14.5492 22.5535 15.0625 22.7074V19.3965ZM31.2434 13.9422C34.1406 14.2547 36.9375 16.1402 36.9375 19.3965V22.7074C37.4536 22.5511 37.9747 22.4119 38.5 22.2902V19.3965C38.5 15.7691 35.7281 13.3395 32.5324 12.5816C32.1557 13.0826 31.7232 13.539 31.2434 13.9422Z" fill="#D9A441"/>
<path d="M26 14.2813C27.3134 14.2813 28.5973 13.8918 29.6893 13.1621C30.7814 12.4324 31.6325 11.3953 32.1351 10.1819C32.6378 8.96847 32.7693 7.63326 32.513 6.34511C32.2568 5.05695 31.6243 3.87371 30.6956 2.945C29.7669 2.01629 28.5837 1.38383 27.2955 1.1276C26.0074 0.871371 24.6722 1.00288 23.4587 1.50549C22.2453 2.0081 21.2082 2.85925 20.4785 3.95129C19.7488 5.04334 19.3594 6.32724 19.3594 7.64063C19.3593 8.51272 19.531 9.37628 19.8647 10.182C20.1983 10.9877 20.6875 11.7198 21.3041 12.3365C21.9208 12.9531 22.6529 13.4423 23.4586 13.776C24.2643 14.1097 25.1279 14.2814 26 14.2813ZM26 2.5625C27.0044 2.5625 27.9862 2.86033 28.8213 3.41832C29.6563 3.97631 30.3072 4.76941 30.6916 5.69731C31.0759 6.62522 31.1765 7.64626 30.9805 8.63132C30.7846 9.61638 30.301 10.5212 29.5908 11.2314C28.8806 11.9416 27.9758 12.4252 26.9907 12.6212C26.0056 12.8171 24.9846 12.7166 24.0567 12.3322C23.1288 11.9479 22.3357 11.297 21.7777 10.4619C21.2197 9.62679 20.9219 8.64499 20.9219 7.64063C20.9234 6.2943 21.4589 5.00356 22.4109 4.05156C23.3629 3.09957 24.6537 2.56405 26 2.5625ZM50.4516 25.1484L43.6473 19.3426C43.4202 19.1489 43.1423 19.0242 42.8466 18.9835C42.5509 18.9427 42.2497 18.9875 41.9787 19.1125C41.7076 19.2376 41.478 19.4376 41.3171 19.6891C41.1562 19.9405 41.0707 20.2327 41.0707 20.5313V23.416C35.0391 24.2031 29.9531 27.1504 26.5723 31.75L26.5664 31.7559C26.5285 31.8027 26.3113 32.0746 25.993 32.5535C22.6277 27.4922 17.3055 24.2488 10.9293 23.416V20.5313C10.9293 20.2327 10.8438 19.9405 10.6829 19.6891C10.522 19.4376 10.2924 19.2376 10.0213 19.1125C9.75029 18.9875 9.44909 18.9427 9.15338 18.9835C8.85768 19.0242 8.57983 19.1489 8.35273 19.3426L1.54805 25.1484C1.37617 25.2952 1.23817 25.4774 1.14355 25.6826C1.04894 25.8878 0.99996 26.1111 1 26.3371V26.7285C1.00001 26.9545 1.04905 27.1778 1.14373 27.3831C1.23842 27.5883 1.37649 27.7705 1.54844 27.9172L8.35273 33.7231C8.57983 33.9168 8.85768 34.0414 9.15338 34.0822C9.44909 34.1229 9.75029 34.0782 10.0213 33.9531C10.2924 33.8281 10.522 33.628 10.6829 33.3766C10.8438 33.1251 10.9293 32.8329 10.9293 32.5344V30.1449C17.9168 31.5211 22.0312 37.1539 22.0312 45.5313C22.0312 45.6836 22.0945 46.1941 22.0941 46.3098C22.0934 46.5168 22.1749 46.7157 22.3208 46.8627C22.4666 47.0097 22.6648 47.0928 22.8719 47.0938H28.407C28.8214 47.0938 29.2189 46.9291 29.5119 46.6361C29.8049 46.3431 29.9695 45.9457 29.9695 45.5313C29.9695 37.1539 34.0828 31.5211 41.0707 30.1449V32.5344C41.0707 32.8329 41.1562 33.1251 41.3171 33.3766C41.478 33.628 41.7076 33.8281 41.9787 33.9531C42.2497 34.0782 42.5509 34.1229 42.8466 34.0822C43.1423 34.0414 43.4202 33.9168 43.6473 33.7231L50.452 27.9172C50.6238 27.7705 50.7618 27.5882 50.8564 27.383C50.9511 27.1778 51 26.9545 51 26.7285V26.3371C51 26.1111 50.951 25.8878 50.8563 25.6826C50.7616 25.4774 50.6235 25.2951 50.4516 25.1484ZM9.36719 28.3438V32.5344L2.5625 26.7285V26.3371L9.36719 20.5313V24.8281C15.9797 25.3023 21.7219 28.5664 25.0898 34.0652C24.1235 35.8755 23.3866 37.7992 22.8961 39.7918C21.0574 32.7676 15.7609 28.9414 9.36719 28.3438ZM49.4375 26.7285L42.6328 32.5344V28.3438C34.6719 29.0875 28.407 34.832 28.407 45.5313H23.6707C23.7764 41.6089 24.8287 37.7702 26.7379 34.3422C30.0805 28.6742 35.9086 25.3102 42.6332 24.8281V20.5313L49.4375 26.3371V26.7285Z" stroke="#D9A441" stroke-width="0.5"/>
<path d="M25.6594 26.0242C25.5256 26.0058 25.3895 26.0183 25.2613 26.0607C25.1331 26.1031 25.0163 26.1742 24.9199 26.2687C24.8235 26.3632 24.75 26.4785 24.705 26.6058C24.6601 26.7331 24.6449 26.869 24.6605 27.0031C24.6605 27.6461 25.0238 27.9531 25.6594 27.9531C25.7902 27.9732 25.924 27.9628 26.0502 27.9227C26.1763 27.8826 26.2915 27.8139 26.3868 27.722C26.482 27.63 26.5548 27.5173 26.5993 27.3926C26.6438 27.2679 26.6589 27.1346 26.6434 27.0031C26.6607 26.87 26.6472 26.7347 26.6038 26.6077C26.5604 26.4806 26.4883 26.3653 26.3932 26.2706C26.298 26.176 26.1823 26.1045 26.055 26.0617C25.9278 26.019 25.7924 26.0062 25.6594 26.0242ZM29.125 20.3543C29.125 18.7176 27.9598 17.7969 25.9621 17.7969C24.0246 17.7969 22.875 18.7906 22.875 20.4563C22.8831 20.6716 22.9743 20.8754 23.1295 21.0248C23.2847 21.1743 23.4918 21.2578 23.7072 21.2578C23.9227 21.2578 24.1298 21.1743 24.285 21.0248C24.4402 20.8754 24.5314 20.6716 24.5395 20.4563C24.5395 19.6379 25.1145 19.2289 25.9621 19.2289C26.9309 19.2289 27.4906 19.6379 27.4906 20.3539C27.4906 21.9031 24.5547 22.0203 24.5547 23.8617C24.5556 24.0965 24.606 24.3284 24.7024 24.5424C24.7988 24.7564 24.9392 24.9477 25.1145 25.1039C25.1926 25.1799 25.285 25.2396 25.3864 25.2796C25.4878 25.3197 25.5961 25.3392 25.7051 25.3371C25.9177 25.3394 26.1226 25.2579 26.2756 25.1103C26.4285 24.9626 26.5171 24.7606 26.5223 24.548C26.5233 24.3914 26.4757 24.2382 26.3859 24.1098C26.2968 24.0136 26.2433 23.8898 26.2344 23.759C26.2344 22.8824 29.125 22.707 29.125 20.3543ZM15.0625 19.3965C15.0625 16.1402 17.8598 14.2543 20.7566 13.9422C20.2768 13.539 19.8443 13.0826 19.4676 12.5816C16.2723 13.3398 13.5 15.7695 13.5 19.3965V22.2902C14.0297 22.4113 14.5492 22.5535 15.0625 22.7074V19.3965ZM31.2434 13.9422C34.1406 14.2547 36.9375 16.1402 36.9375 19.3965V22.7074C37.4536 22.5511 37.9747 22.4119 38.5 22.2902V19.3965C38.5 15.7691 35.7281 13.3395 32.5324 12.5816C32.1557 13.0826 31.7232 13.539 31.2434 13.9422Z" stroke="#D9A441" stroke-width="0.5"/>
</g>
</svg>
