<svg width="66" height="66" viewBox="0 0 66 66" fill="none" xmlns="http://www.w3.org/2000/svg">
<g id="support (2) 1">
<path id="Vector" d="M59.8499 52.26C59.7622 49.9987 59.0369 47.8082 57.7576 45.9415C56.4783 44.0748 54.6972 42.6078 52.6199 41.71L42.83 37.78L41.1399 35V33.38C42.2599 32.1423 43.1414 30.7082 43.74 29.15C44.1161 28.0487 44.4004 26.9182 44.59 25.77H44.81H45C45.4375 25.7647 45.8612 25.6162 46.2062 25.347C46.5512 25.0779 46.7984 24.7031 46.91 24.28H47L48 24.39H48.1399C48.5067 24.3999 48.8637 24.2713 49.1399 24.03C49.4309 23.7611 49.6125 23.3944 49.65 23L50 18.82C50.0394 18.4084 49.9159 17.9978 49.656 17.6763C49.3962 17.3547 49.0206 17.1478 48.61 17.1L47.61 17H47.5499C47.483 16.6936 47.3449 16.4072 47.1469 16.164C46.9489 15.9208 46.6964 15.7276 46.41 15.6V15.46C47.5099 11 46 8.53997 44 5.42997C41.8499 1.87997 35.86 0.299972 28.43 1.28997C27.5432 1.33897 26.6748 1.56302 25.8751 1.94918C25.0753 2.33535 24.3598 2.876 23.77 3.53997C23.4248 3.99224 23.1825 4.51439 23.06 5.06997C22.2388 5.19008 21.4854 5.59331 20.93 6.20997C18.93 8.41997 19.01 13.15 19.41 15.7C19.1739 15.8411 18.9695 16.0293 18.8094 16.253C18.6494 16.4767 18.5373 16.731 18.48 17H18.4L17.4 17.1C16.9885 17.1478 16.612 17.3544 16.3506 17.6756C16.0891 17.9968 15.9633 18.4074 16 18.82L16.38 23C16.4059 23.2123 16.4741 23.4173 16.5806 23.6028C16.6871 23.7883 16.8297 23.9505 17 24.08C17.2787 24.316 17.6348 24.4407 18 24.43H18.15L19.15 24.33C19.2543 24.7241 19.4821 25.0746 19.8 25.33C20.1371 25.6148 20.559 25.78 21 25.8H21.18H21.34C21.5211 26.9466 21.8056 28.0746 22.19 29.17C22.7846 30.7331 23.6665 32.1711 24.79 33.41V35L23 37.83L13.69 41.59C11.5278 42.5316 9.67422 44.0625 8.34091 46.0076C7.00759 47.9528 6.24835 50.2338 6.14995 52.59L5.69995 64C5.69995 64.2652 5.80531 64.5195 5.99284 64.7071C6.18038 64.8946 6.43473 65 6.69995 65H59.2999C59.5652 65 59.8195 64.8946 60.0071 64.7071C60.1946 64.5195 60.2999 64.2652 60.2999 64L59.8499 52.26ZM32.18 40.14C30.33 38.62 28.34 36.86 27.38 35.86C28.9479 37.0827 30.8748 37.755 32.863 37.7731C34.8512 37.7912 36.7901 37.154 38.38 35.96C37.38 36.96 35.3799 38.68 33.57 40.14H32.18ZM35.56 41.14C37.1486 39.9022 38.6582 38.5663 40.08 37.14L41.08 38.71L38.5999 44.45C37.7224 43.2232 36.7019 42.1054 35.56 41.12V41.14ZM45 23.8L44.1199 23.74L44.6899 17.34H44.9599H45H45.58L45 23.8ZM48 19.05L47.72 22.39L47.27 22.34H47.15L47.43 19L48 19.05ZM22.3899 7.56997C22.5716 7.35892 22.8029 7.19633 23.063 7.09683C23.3231 6.99734 23.6038 6.96405 23.88 6.99997C24.0288 7.01369 24.1788 6.99386 24.319 6.94194C24.4592 6.89002 24.5859 6.80734 24.69 6.69997C24.7951 6.60019 24.8772 6.47875 24.9307 6.34407C24.9843 6.20939 25.0079 6.06468 25 5.91997C25 5.70997 24.9 3.78997 28.72 3.27997C35.27 2.39997 40.63 3.65997 42.38 6.47997C44.13 9.29997 45.38 11.35 44.49 14.98C44.49 15.11 44.4399 15.24 44.41 15.37C43.9657 15.4372 43.5571 15.6521 43.25 15.98C43.0176 14.8905 42.655 13.8329 42.1699 12.83C40.4399 9.60997 37.85 9.69997 35.95 9.76997H35.49C34.8706 9.79787 34.2531 9.85795 33.6399 9.94997C31.6399 10.22 28.91 10.58 26.27 9.46997C26.118 9.40638 25.9526 9.38133 25.7887 9.39703C25.6247 9.41273 25.4671 9.4687 25.33 9.55997C23.4011 10.9409 22.0765 13.0101 21.63 15.34H21.41C21 12.85 21.0599 8.99997 22.3899 7.56997ZM18.34 22.39L18.06 19.05L18.53 19L18.84 22.35C18.8035 22.3449 18.7664 22.3449 18.73 22.35L18.34 22.39ZM21 23.8L20.39 17.42L21.28 17.32L21.9 23.72L21 23.8ZM23.25 25.18L23.42 25.01C23.7547 24.6046 23.9164 24.0837 23.87 23.56L23.4 18.43C23.4 17.71 23.46 16.98 23.49 16.31C23.5687 15.389 23.8314 14.4932 24.2626 13.6756C24.6937 12.858 25.2845 12.1352 26 11.55C28.543 12.3307 31.2394 12.4715 33.8499 11.96C34.4999 11.87 35.06 11.8 35.49 11.78H36C37.82 11.72 39.25 11.66 40.3899 13.78C41.3899 15.68 42.03 20.2 42.2 22.67L42.1199 23.57C42.0803 23.9505 42.157 24.334 42.34 24.67C42.2981 24.7496 42.2645 24.8334 42.24 24.92C41.61 27.54 37.7399 29.14 35.5099 29.77C35.2354 29.2628 34.7946 28.8657 34.2617 28.6453C33.7288 28.4249 33.1363 28.3948 32.5837 28.56C32.0312 28.7251 31.5524 29.0755 31.2278 29.5522C30.9033 30.0289 30.7528 30.6028 30.8016 31.1774C30.8505 31.752 31.0957 32.2923 31.496 32.7074C31.8964 33.1224 32.4275 33.387 32.9999 33.4565C33.5724 33.526 34.1514 33.3963 34.6395 33.0892C35.1275 32.782 35.495 32.3162 35.68 31.77C37.8402 31.2431 39.8778 30.3025 41.68 29C40.6932 31.0158 39.2603 32.7804 37.49 34.16C36.2287 35.183 34.654 35.7414 33.0299 35.7414C31.4059 35.7414 29.8312 35.183 28.57 34.16C26.6228 32.665 25.0965 30.6908 24.1399 28.43C23.7469 27.3769 23.4556 26.2886 23.27 25.18H23.25ZM33.7999 31C33.7999 31.1008 33.77 31.1994 33.714 31.2833C33.658 31.3672 33.5783 31.4325 33.4851 31.4711C33.3919 31.5098 33.2894 31.5198 33.1905 31.5002C33.0915 31.4805 33.0007 31.4319 32.9293 31.3606C32.858 31.2893 32.8094 31.1984 32.7897 31.0995C32.7701 31.0005 32.7802 30.898 32.8188 30.8048C32.8574 30.7116 32.9227 30.632 33.0066 30.5759C33.0905 30.5199 33.1891 30.49 33.29 30.49C33.4252 30.49 33.5549 30.5437 33.6506 30.6393C33.7462 30.735 33.7999 30.8647 33.7999 31ZM25.7999 37.12C27.1583 38.5052 28.6046 39.8012 30.13 41C28.9902 41.8498 27.9797 42.8603 27.13 44L24.78 38.66L25.7999 37.12ZM8.12995 52.69C8.20079 50.5159 8.94896 48.4182 10.27 46.69C11.3582 45.2596 12.7935 44.1306 14.44 43.41L23.13 39.89L25.59 45.46C25.6502 45.7341 25.7877 45.9852 25.9862 46.1837C26.1847 46.3822 26.4358 46.5197 26.7099 46.58C26.8197 46.5899 26.9302 46.5899 27.04 46.58C27.3007 46.5794 27.5569 46.5109 27.7831 46.3811C28.0093 46.2513 28.1978 46.0648 28.33 45.84C28.6258 45.3696 28.9602 44.9248 29.33 44.51L30.7299 46.04L29 63H7.73995L8.12995 52.69ZM31 63L32.6699 45.85C32.6843 45.7113 32.6694 45.5711 32.6264 45.4385C32.5833 45.3059 32.513 45.1838 32.4199 45.08L30.7 43.16C31.1247 42.8026 31.5687 42.4688 32.0299 42.16H33.6699C33.9299 42.37 34.35 42.72 34.83 43.16L33.31 45.09C33.1492 45.2936 33.0739 45.5518 33.0999 45.81L34.83 63H31ZM36.7999 63L35.13 46L36.22 44.62C36.6624 45.1484 37.0636 45.7101 37.4199 46.3C37.5493 46.528 37.7369 46.7177 37.9635 46.8494C38.1902 46.9812 38.4478 47.0504 38.7099 47.05C38.8078 47.041 38.9048 47.0243 39 47C39.2754 46.9389 39.5274 46.8 39.726 46.5996C39.9246 46.3992 40.0614 46.1459 40.1199 45.87L42.6399 39.87L51.81 43.55C53.3448 44.21 54.6918 45.2408 55.7299 46.55C57.0027 48.197 57.7299 50.2 57.81 52.28L58.2599 63H36.7999Z" fill="black"/>
</g>
</svg>
