<svg width="52" height="52" viewBox="0 0 52 52" fill="none" xmlns="http://www.w3.org/2000/svg">
<path id="Vector" d="M12.2741 22.0872C12.1551 22.382 12.2265 22.7195 12.4548 22.9407C12.683 23.1619 13.0227 23.2229 13.3136 23.0947L17.104 21.4243C18.5062 22.3306 20.1136 22.9138 21.7806 23.1179C22.2238 23.1722 22.664 23.199 23.0999 23.2004C24.7062 24.0511 26.491 24.4903 28.2918 24.4903C29.026 24.4903 29.7628 24.4174 30.4911 24.2701C32.137 23.9371 33.6944 23.2307 35.0219 22.2181L38.9306 23.5889C39.2306 23.694 39.5644 23.6071 39.7749 23.3687C39.9852 23.1303 40.0302 22.7883 39.8886 22.5037L38.0157 18.7393C39.2823 16.4393 39.6921 13.7759 39.1688 11.1901C38.1221 6.01658 33.5839 2.3088 28.3341 2.29103C27.1501 1.66339 25.8488 1.25168 24.4788 1.084C21.5361 0.723559 18.6292 1.53078 16.2934 3.35684C13.9578 5.1829 12.473 7.80914 12.1127 10.752C11.792 13.3706 12.4076 15.9943 13.849 18.1888L12.2741 22.0872ZM37.6373 11.4997C38.1115 13.8437 37.6936 16.262 36.4604 18.3092C36.3227 18.5379 36.3112 18.8212 36.4302 19.0603L37.6331 21.478L35.1318 20.6008C34.873 20.51 34.5855 20.5617 34.3743 20.737C33.1721 21.7347 31.7221 22.4269 30.1812 22.7387C28.9045 22.997 27.5973 22.9873 26.3405 22.7249C30.4171 21.4864 33.5964 17.9438 34.1467 13.4499C34.507 10.5072 33.6998 7.60026 31.8739 5.26463C31.5881 4.89921 31.2829 4.55458 30.9598 4.23183C34.2862 5.20096 36.9189 7.95016 37.6373 11.4997ZM13.6634 10.9416C13.9729 8.41314 15.2487 6.15652 17.2556 4.58759C19.2624 3.01856 21.7602 2.32511 24.2888 2.63468C26.8173 2.94424 29.0739 4.22001 30.6428 6.22693C32.2118 8.23375 32.9054 10.7315 32.5958 13.2601C32.0045 18.0882 27.8827 21.6388 23.1366 21.6384C21.179 21.6383 19.2341 21.0271 17.6344 19.8973C17.4241 19.7488 17.1125 19.7131 16.8686 19.8206L14.4431 20.8895L15.4545 18.3856C15.5545 18.138 15.5212 17.8565 15.366 17.6391C13.9773 15.6939 13.3727 13.3154 13.6634 10.9416ZM22.142 12.1008C22.142 11.5615 22.5792 11.1243 23.1186 11.1243C23.6579 11.1243 24.0951 11.5615 24.0951 12.1008C24.0951 12.6402 23.6579 13.0774 23.1186 13.0774C22.5792 13.0774 22.142 12.6402 22.142 12.1008ZM26.6114 12.1008C26.6114 11.5615 27.0486 11.1243 27.588 11.1243C28.1273 11.1243 28.5645 11.5615 28.5645 12.1008C28.5645 12.6402 28.1273 13.0774 27.588 13.0774C27.0487 13.0774 26.6114 12.6402 26.6114 12.1008ZM17.6946 12.1008C17.6946 11.5615 18.1318 11.1243 18.6711 11.1243C19.2105 11.1243 19.6477 11.5615 19.6477 12.1008C19.6477 12.6402 19.2105 13.0774 18.6711 13.0774C18.1318 13.0774 17.6946 12.6402 17.6946 12.1008ZM16.2392 38.9741C17.9627 37.8405 19.1035 35.8905 19.1035 33.6779C19.1035 30.1844 16.2612 27.3421 12.7676 27.3421C9.27396 27.3421 6.43169 30.1844 6.43169 33.6779C6.43169 35.8904 7.5725 37.8405 9.29593 38.9741C4.49655 40.4589 1 44.938 1 50.2188C1 50.6502 1.3498 51 1.78124 51H23.7537C24.1852 51 24.535 50.6502 24.535 50.2188C24.535 44.9381 21.0385 40.459 16.2392 38.9741ZM7.99418 33.6779C7.99418 31.0459 10.1355 28.9046 12.7676 28.9046C15.3997 28.9046 17.541 31.0459 17.541 33.6779C17.541 36.3095 15.4003 38.4506 12.7688 38.4513C12.7684 38.4513 12.768 38.4513 12.7676 38.4513C12.7672 38.4513 12.7668 38.4513 12.7664 38.4513C10.1348 38.4506 7.99418 36.3095 7.99418 33.6779ZM2.59208 49.4375C2.99227 44.1744 7.40249 40.0144 12.7662 40.0138C12.7666 40.0138 12.7671 40.0138 12.7675 40.0138C12.7679 40.0138 12.7683 40.0138 12.7688 40.0138C18.1325 40.0144 22.5426 44.1744 22.9428 49.4375H2.59208ZM42.7038 38.9741C44.4272 37.8405 45.5681 35.8905 45.5681 33.6779C45.5681 30.1844 42.7258 27.3421 39.2322 27.3421C35.7387 27.3421 32.8964 30.1844 32.8964 33.6779C32.8964 35.8904 34.0372 37.8405 35.7607 38.9741C30.9612 40.4589 27.4646 44.938 27.4646 50.2188C27.4646 50.6502 27.8144 51 28.2459 51H50.2183C50.6498 51 50.9996 50.6502 50.9996 50.2188C50.9996 44.9381 47.5031 40.459 42.7038 38.9741ZM34.4588 33.6779C34.4588 31.0459 36.6001 28.9046 39.2321 28.9046C41.8642 28.9046 44.0055 31.0459 44.0055 33.6779C44.0055 36.3095 41.8648 38.4506 39.2333 38.4513C39.2329 38.4513 39.2324 38.4513 39.232 38.4513C39.2316 38.4513 39.2312 38.4513 39.2307 38.4513C36.5994 38.4506 34.4588 36.3095 34.4588 33.6779ZM29.0567 49.4375C29.4569 44.1744 33.8671 40.0144 39.2308 40.0138C39.2312 40.0138 39.2317 40.0138 39.2321 40.0138C39.2325 40.0138 39.233 40.0138 39.2334 40.0138C44.5971 40.0144 49.0073 44.1744 49.4074 49.4375H29.0567Z" fill="#D9A441" stroke="#D9A441" stroke-width="0.5"/>
</svg>
