<svg width="48" height="48" viewBox="0 0 48 48" fill="none" xmlns="http://www.w3.org/2000/svg">
<g id="website 1" clip-path="url(#clip0_27_3732)">
<path id="Vector" d="M47 40H46V15C46 14.2044 45.6839 13.4413 45.1213 12.8787C44.5587 12.3161 43.7957 12 43 12H40V3C40 2.20435 39.6839 1.44129 39.1213 0.87868C38.5587 0.31607 37.7957 0 37 0L11 0C10.2044 0 9.44129 0.31607 8.87868 0.87868C8.31607 1.44129 8 2.20435 8 3V12H5C4.20435 12 3.44129 12.3161 2.87868 12.8787C2.31607 13.4413 2 14.2044 2 15V40H1C0.734784 40 0.48043 40.1054 0.292893 40.2929C0.105357 40.4804 0 40.7348 0 41L0 43C0 43.6566 0.129329 44.3068 0.380602 44.9134C0.631876 45.52 1.00017 46.0712 1.46447 46.5355C1.92876 46.9998 2.47995 47.3681 3.08658 47.6194C3.69321 47.8707 4.34339 48 5 48H43C43.6566 48 44.3068 47.8707 44.9134 47.6194C45.52 47.3681 46.0712 46.9998 46.5355 46.5355C46.9998 46.0712 47.3681 45.52 47.6194 44.9134C47.8707 44.3068 48 43.6566 48 43V41C48 40.7348 47.8946 40.4804 47.7071 40.2929C47.5196 40.1054 47.2652 40 47 40ZM10 8H38V31C38 31.2652 37.8946 31.5196 37.7071 31.7071C37.5196 31.8946 37.2652 32 37 32H11C10.7348 32 10.4804 31.8946 10.2929 31.7071C10.1054 31.5196 10 31.2652 10 31V8ZM10 3C10 2.73478 10.1054 2.48043 10.2929 2.29289C10.4804 2.10536 10.7348 2 11 2H37C37.2652 2 37.5196 2.10536 37.7071 2.29289C37.8946 2.48043 38 2.73478 38 3V6H10V3ZM4 15C4 14.7348 4.10536 14.4804 4.29289 14.2929C4.48043 14.1054 4.73478 14 5 14H8V31C8 31.7956 8.31607 32.5587 8.87868 33.1213C9.44129 33.6839 10.2044 34 11 34H37C37.7957 34 38.5587 33.6839 39.1213 33.1213C39.6839 32.5587 40 31.7956 40 31V14H43C43.2652 14 43.5196 14.1054 43.7071 14.2929C43.8946 14.4804 44 14.7348 44 15V40C28 40 28.5 39.77 28.11 40.55L27.38 42H20.62C19.81 40.39 19.74 40 19 40H4V15ZM46 43C46 43.7957 45.6839 44.5587 45.1213 45.1213C44.5587 45.6839 43.7957 46 43 46H5C4.20435 46 3.44129 45.6839 2.87868 45.1213C2.31607 44.5587 2 43.7957 2 43V42H18.38C19.19 43.61 19.26 44 20 44C28.62 44 28.52 44.2 28.89 43.45L29.62 42H46V43Z" fill="#192735"/>
<path id="Vector_2" d="M13 3C12.7348 3 12.4804 3.10536 12.2929 3.29289C12.1054 3.48043 12 3.73478 12 4C12 4.26522 12.1054 4.51957 12.2929 4.70711C12.4804 4.89464 12.7348 5 13 5C13.2652 5 13.5196 4.89464 13.7071 4.70711C13.8946 4.51957 14 4.26522 14 4C14 3.73478 13.8946 3.48043 13.7071 3.29289C13.5196 3.10536 13.2652 3 13 3ZM17 3C16.7348 3 16.4804 3.10536 16.2929 3.29289C16.1054 3.48043 16 3.73478 16 4C16 4.26522 16.1054 4.51957 16.2929 4.70711C16.4804 4.89464 16.7348 5 17 5C17.2652 5 17.5196 4.89464 17.7071 4.70711C17.8946 4.51957 18 4.26522 18 4C18 3.73478 17.8946 3.48043 17.7071 3.29289C17.5196 3.10536 17.2652 3 17 3ZM21 3C20.7348 3 20.4804 3.10536 20.2929 3.29289C20.1054 3.48043 20 3.73478 20 4C20 4.26522 20.1054 4.51957 20.2929 4.70711C20.4804 4.89464 20.7348 5 21 5C21.2652 5 21.5196 4.89464 21.7071 4.70711C21.8946 4.51957 22 4.26522 22 4C22 3.73478 21.8946 3.48043 21.7071 3.29289C21.5196 3.10536 21.2652 3 21 3ZM24 30C25.9778 30 27.9112 29.4135 29.5557 28.3147C31.2002 27.2159 32.4819 25.6541 33.2388 23.8268C33.9957 21.9996 34.1937 19.9889 33.8079 18.0491C33.422 16.1093 32.4696 14.3275 31.0711 12.9289C29.6725 11.5304 27.8907 10.578 25.9509 10.1921C24.0111 9.80629 22.0004 10.0043 20.1732 10.7612C18.3459 11.5181 16.7841 12.7998 15.6853 14.4443C14.5865 16.0888 14 18.0222 14 20C14 22.6522 15.0536 25.1957 16.9289 27.0711C18.8043 28.9464 21.3478 30 24 30ZM16.07 21H20.07C20.1629 23.3785 20.8505 25.6958 22.07 27.74C20.5078 27.3507 19.0995 26.4992 18.029 25.2967C16.9585 24.0942 16.2758 22.5967 16.07 21ZM24 12.88C25.222 14.6947 25.9146 16.8139 26 19H22C22.0854 16.8139 22.778 14.6947 24 12.88ZM26 21C25.9146 23.1861 25.222 25.3053 24 27.12C22.778 25.3053 22.0854 23.1861 22 21H26ZM26 27.74C27.2195 25.6958 27.9071 23.3785 28 21H32C31.7942 22.5967 31.1115 24.0942 30.041 25.2967C28.9705 26.4992 27.5622 27.3507 26 27.74ZM31.93 19H28C27.9071 16.6215 27.2195 14.3042 26 12.26C27.5492 12.6614 28.9424 13.5183 29.9995 14.7198C31.0566 15.9213 31.7291 17.4123 31.93 19ZM22 12.26C20.7805 14.3042 20.0929 16.6215 20 19H16C16.2058 17.4033 16.8885 15.9058 17.959 14.7033C19.0295 13.5008 20.4378 12.6493 22 12.26Z" fill="#192735"/>
</g>
<defs>
<clipPath id="clip0_27_3732">
<rect width="48" height="48" fill="white"/>
</clipPath>
</defs>
</svg>
