<svg width="15" height="15" viewBox="0 0 15 15" fill="none" xmlns="http://www.w3.org/2000/svg">
<path fill-rule="evenodd" clip-rule="evenodd" d="M9.36231 9.71769C10.9815 9.9 12.3454 10.3069 13.1738 10.8638C13.57 11.1292 13.8462 11.4023 13.8462 11.7308C13.8462 11.9 13.7615 12.0546 13.6315 12.2062C13.4423 12.4269 13.1631 12.6269 12.8162 12.8108C11.6177 13.4462 9.68077 13.8462 7.5 13.8462C5.31923 13.8462 3.38231 13.4462 2.18385 12.8108C1.83692 12.6269 1.55769 12.4269 1.36846 12.2062C1.23846 12.0546 1.15385 11.8992 1.15385 11.7308C1.15385 11.4015 1.43077 11.1292 1.82692 10.8631C2.65615 10.3069 4.02077 9.89923 5.64154 9.71692C5.71835 9.71038 5.79307 9.68851 5.86128 9.6526C5.9295 9.6167 5.98983 9.56749 6.0387 9.50788C6.08758 9.44826 6.12402 9.37946 6.14586 9.30553C6.1677 9.2316 6.1745 9.15405 6.16586 9.07744C6.15722 9.00084 6.13332 8.92675 6.09557 8.85954C6.05781 8.79233 6.00697 8.73336 5.94605 8.68613C5.88513 8.6389 5.81536 8.60436 5.74086 8.58454C5.66636 8.56473 5.58865 8.56005 5.51231 8.57077C3.66923 8.77846 2.12692 9.27231 1.18385 9.90462C0.398462 10.4315 0 11.0785 0 11.7308C0 12.3338 0.336154 12.9285 1.00385 13.4292C2.22308 14.3431 4.67154 15 7.5 15C10.3285 15 12.7769 14.3431 13.9962 13.4292C14.6638 12.9292 15 12.3338 15 11.7308C15 11.0785 14.6015 10.4323 13.8169 9.90539C12.8746 9.27308 11.3331 8.77846 9.49154 8.57077C9.41623 8.56228 9.33999 8.56871 9.26717 8.58969C9.19434 8.61067 9.12637 8.64579 9.06711 8.69304C8.94745 8.78847 8.8706 8.92752 8.85346 9.07962C8.83632 9.23171 8.88031 9.38438 8.97573 9.50404C9.07116 9.6237 9.21022 9.70056 9.36231 9.71769Z" fill="#D9A441"/>
<path fill-rule="evenodd" clip-rule="evenodd" d="M6.92308 7.26231C6.06504 7.12463 5.28409 6.68584 4.72025 6.02458C4.1564 5.36333 3.84651 4.52286 3.84615 3.65385C3.84656 2.68491 4.23165 1.75578 4.91679 1.07064C5.60193 0.385496 6.53106 0.000407715 7.5 0C8.46894 0.000407715 9.39807 0.385496 10.0832 1.07064C10.7683 1.75578 11.1534 2.68491 11.1538 3.65385C11.1535 4.52286 10.8436 5.36333 10.2798 6.02458C9.71591 6.68584 8.93496 7.12463 8.07692 7.26231V11.7308C8.07692 11.8838 8.01614 12.0305 7.90795 12.1387C7.79975 12.2469 7.65301 12.3077 7.5 12.3077C7.34699 12.3077 7.20025 12.2469 7.09205 12.1387C6.98386 12.0305 6.92308 11.8838 6.92308 11.7308V7.26231ZM7.5 6.15385C8.1523 6.13766 8.77245 5.86717 9.22808 5.40009C9.68372 4.93301 9.93875 4.30635 9.93875 3.65385C9.93875 3.00134 9.68372 2.37468 9.22808 1.9076C8.77245 1.44052 8.1523 1.17003 7.5 1.15385C6.8477 1.17003 6.22755 1.44052 5.77192 1.9076C5.31628 2.37468 5.06125 3.00134 5.06125 3.65385C5.06125 4.30635 5.31628 4.93301 5.77192 5.40009C6.22755 5.86717 6.8477 6.13766 7.5 6.15385Z" fill="#D9A441"/>
</svg>
